<svg xmlns="http://www.w3.org/2000/svg" xmlns:xlink="http://www.w3.org/1999/xlink" width="1080" zoomAndPan="magnify" viewBox="0 0 810 809.999993" height="1080" preserveAspectRatio="xMidYMid meet" version="1.0"><defs><g/><clipPath id="d38b55c68e"><path d="M 641.683594 409.242188 L 742.261719 409.242188 L 742.261719 506.984375 L 641.683594 506.984375 Z M 641.683594 409.242188 " clip-rule="nonzero"/></clipPath><clipPath id="ee74bc477e"><path d="M 646.289062 405 L 742.261719 405 L 742.261719 517 L 646.289062 517 Z M 646.289062 405 " clip-rule="nonzero"/></clipPath><clipPath id="3588b73420"><path d="M 669.316406 457.539062 L 742.261719 457.539062 L 742.261719 517 L 669.316406 517 Z M 669.316406 457.539062 " clip-rule="nonzero"/></clipPath><clipPath id="114acb4695"><path d="M 418.289062 406 L 519 406 L 519 509 L 418.289062 509 Z M 418.289062 406 " clip-rule="nonzero"/></clipPath><clipPath id="25d532756b"><path d="M 418.289062 401.769531 L 515 401.769531 L 515 516 L 418.289062 516 Z M 418.289062 401.769531 " clip-rule="nonzero"/></clipPath><clipPath id="92d568476c"><path d="M 418.289062 452 L 501 452 L 501 516 L 418.289062 516 Z M 418.289062 452 " clip-rule="nonzero"/></clipPath><clipPath id="befa8c9b7e"><path d="M 576.058594 567 L 579.511719 567 L 579.511719 587.019531 L 576.058594 587.019531 Z M 576.058594 567 " clip-rule="nonzero"/></clipPath></defs><g fill="#0097b2" fill-opacity="1"><g transform="translate(19.384133, 391.985215)"><g><path d="M 15.71875 -48.78125 C 15.71875 -47.101562 16.164062 -45.679688 17.0625 -44.515625 C 17.96875 -43.347656 19.195312 -42.328125 20.75 -41.453125 C 22.300781 -40.585938 24.113281 -39.765625 26.1875 -38.984375 C 28.257812 -38.210938 30.457031 -37.40625 32.78125 -36.5625 C 35.101562 -35.65625 37.332031 -34.703125 39.46875 -33.703125 C 41.601562 -32.703125 43.492188 -31.472656 45.140625 -30.015625 C 46.796875 -28.554688 48.125 -26.84375 49.125 -24.875 C 50.125 -22.90625 50.625 -20.53125 50.625 -17.75 C 50.625 -14.90625 50.070312 -12.332031 48.96875 -10.03125 C 47.875 -7.738281 46.304688 -5.769531 44.265625 -4.125 C 42.234375 -2.476562 39.742188 -1.203125 36.796875 -0.296875 C 33.859375 0.609375 30.582031 1.0625 26.96875 1.0625 C 23.082031 1.0625 19.195312 0.578125 15.3125 -0.390625 C 11.4375 -1.359375 7.984375 -2.679688 4.953125 -4.359375 L 4.5625 -5.625 L 6.78125 -18.625 L 11.15625 -18.625 L 11.640625 -18.046875 C 12.023438 -13.578125 13.523438 -10.40625 16.140625 -8.53125 C 18.765625 -6.65625 22.335938 -5.71875 26.859375 -5.71875 C 31.328125 -5.71875 34.5625 -6.507812 36.5625 -8.09375 C 38.5625 -9.675781 39.5625 -12.019531 39.5625 -15.125 C 39.5625 -17.132812 39.140625 -18.785156 38.296875 -20.078125 C 37.460938 -21.367188 36.285156 -22.46875 34.765625 -23.375 C 33.242188 -24.28125 31.414062 -25.085938 29.28125 -25.796875 C 27.15625 -26.503906 24.796875 -27.34375 22.203125 -28.3125 C 19.878906 -29.15625 17.710938 -30.078125 15.703125 -31.078125 C 13.703125 -32.085938 11.972656 -33.285156 10.515625 -34.671875 C 9.066406 -36.054688 7.921875 -37.71875 7.078125 -39.65625 C 6.234375 -41.601562 5.8125 -43.9375 5.8125 -46.65625 C 5.8125 -52.34375 7.671875 -56.738281 11.390625 -59.84375 C 15.109375 -62.945312 20.785156 -64.5 28.421875 -64.5 C 31.910156 -64.5 35.171875 -64.09375 38.203125 -63.28125 C 41.242188 -62.46875 43.800781 -61.515625 45.875 -60.421875 L 46.265625 -59.359375 L 44.703125 -48.296875 L 40.046875 -48.296875 L 39.5625 -48.78125 C 39.175781 -51.5 38.015625 -53.597656 36.078125 -55.078125 C 34.140625 -56.566406 31.425781 -57.3125 27.9375 -57.3125 C 24.050781 -57.3125 21.039062 -56.535156 18.90625 -54.984375 C 16.78125 -53.429688 15.71875 -51.363281 15.71875 -48.78125 Z M 15.71875 -48.78125 "/></g></g></g><g fill="#000000" fill-opacity="1"><g transform="translate(76.126318, 391.985215)"><g><path d="M 45.484375 0.578125 C 45.035156 0.578125 44.289062 0.546875 43.25 0.484375 C 42.21875 0.421875 41.148438 0.351562 40.046875 0.28125 C 38.953125 0.21875 37.882812 0.15625 36.84375 0.09375 C 35.8125 0.03125 35.070312 0 34.625 0 L 28.90625 0 C 28.445312 0 27.703125 0.03125 26.671875 0.09375 C 25.640625 0.15625 24.554688 0.21875 23.421875 0.28125 C 22.285156 0.351562 21.203125 0.421875 20.171875 0.484375 C 19.140625 0.546875 18.394531 0.578125 17.9375 0.578125 L 17.84375 0.1875 L 18.046875 -3.484375 L 18.53125 -3.875 C 19.5 -3.875 20.453125 -3.921875 21.390625 -4.015625 C 22.328125 -4.117188 23.085938 -4.394531 23.671875 -4.84375 C 24.242188 -5.300781 24.753906 -5.882812 25.203125 -6.59375 C 25.660156 -7.300781 25.957031 -8.5625 26.09375 -10.375 C 26.15625 -10.832031 26.203125 -11.367188 26.234375 -11.984375 C 26.265625 -12.597656 26.296875 -13.351562 26.328125 -14.25 C 26.359375 -15.15625 26.375 -16.253906 26.375 -17.546875 C 26.375 -18.847656 26.375 -20.46875 26.375 -22.40625 L 26.375 -24.25 C 26.375 -26.0625 26.113281 -27.53125 25.59375 -28.65625 C 25.082031 -29.789062 24.566406 -30.8125 24.046875 -31.71875 C 21.921875 -35.207031 19.578125 -38.828125 17.015625 -42.578125 C 14.460938 -46.328125 11.828125 -50.140625 9.109375 -54.015625 C 8.660156 -54.734375 8.144531 -55.429688 7.5625 -56.109375 C 6.976562 -56.785156 6.460938 -57.316406 6.015625 -57.703125 C 5.304688 -58.285156 4.445312 -58.707031 3.4375 -58.96875 C 2.4375 -59.226562 1.289062 -59.421875 0 -59.546875 L -0.78125 -59.9375 L -0.78125 -63.625 L -0.296875 -64.015625 C 1.328125 -63.816406 2.785156 -63.632812 4.078125 -63.46875 C 5.367188 -63.3125 6.789062 -63.234375 8.34375 -63.234375 L 16.296875 -63.234375 C 17.785156 -63.234375 19.515625 -63.3125 21.484375 -63.46875 C 23.453125 -63.632812 25.34375 -63.816406 27.15625 -64.015625 L 27.546875 -63.625 L 27.546875 -59.9375 L 27.15625 -59.546875 C 25.863281 -59.484375 24.734375 -59.367188 23.765625 -59.203125 C 22.796875 -59.046875 22.019531 -58.773438 21.4375 -58.390625 C 20.789062 -57.929688 20.46875 -57.347656 20.46875 -56.640625 C 20.46875 -56.253906 20.546875 -55.863281 20.703125 -55.46875 C 20.867188 -55.082031 21.046875 -54.726562 21.234375 -54.40625 L 32.78125 -36.078125 L 43.640625 -52.859375 C 44.285156 -53.953125 44.609375 -55.082031 44.609375 -56.25 C 44.609375 -57.03125 44.378906 -57.613281 43.921875 -58 C 43.472656 -58.382812 42.910156 -58.671875 42.234375 -58.859375 C 41.554688 -59.054688 40.8125 -59.1875 40 -59.25 C 39.195312 -59.320312 38.441406 -59.453125 37.734375 -59.640625 L 37.34375 -60.03125 L 37.34375 -63.71875 L 37.734375 -64.109375 C 39.609375 -63.785156 41.15625 -63.609375 42.375 -63.578125 C 43.601562 -63.546875 45.03125 -63.53125 46.65625 -63.53125 L 55.1875 -63.53125 C 56.738281 -63.53125 58.160156 -63.5625 59.453125 -63.625 C 60.742188 -63.6875 62.296875 -63.847656 64.109375 -64.109375 L 64.5 -63.71875 L 64.5 -60.03125 L 64.109375 -59.640625 C 62.617188 -59.453125 61.351562 -59.195312 60.3125 -58.875 C 59.28125 -58.550781 58.34375 -58.097656 57.5 -57.515625 C 56.664062 -56.929688 55.84375 -56.1875 55.03125 -55.28125 C 54.226562 -54.375 53.34375 -53.242188 52.375 -51.890625 C 50.4375 -49.046875 48.769531 -46.601562 47.375 -44.5625 C 45.988281 -42.53125 44.789062 -40.71875 43.78125 -39.125 C 42.78125 -37.539062 41.859375 -36.070312 41.015625 -34.71875 C 40.179688 -33.363281 39.3125 -31.941406 38.40625 -30.453125 C 38.144531 -30.066406 37.851562 -29.40625 37.53125 -28.46875 C 37.207031 -27.53125 37.046875 -26.578125 37.046875 -25.609375 L 37.046875 -24.15625 C 37.046875 -21.820312 37.046875 -19.941406 37.046875 -18.515625 C 37.046875 -17.097656 37.0625 -15.90625 37.09375 -14.9375 C 37.125 -13.96875 37.15625 -13.160156 37.1875 -12.515625 C 37.21875 -11.867188 37.269531 -11.15625 37.34375 -10.375 C 37.46875 -8.5625 37.769531 -7.300781 38.25 -6.59375 C 38.738281 -5.882812 39.242188 -5.300781 39.765625 -4.84375 C 40.285156 -4.394531 41.015625 -4.117188 41.953125 -4.015625 C 42.890625 -3.921875 43.875 -3.875 44.90625 -3.875 L 45.390625 -3.484375 L 45.671875 0.1875 Z M 45.484375 0.578125 "/></g></g></g><g fill="#545454" fill-opacity="1"><g transform="translate(141.891944, 391.985215)"><g><path d="M 31.8125 -63.421875 C 32.71875 -63.421875 34.054688 -63.4375 35.828125 -63.46875 C 37.609375 -63.507812 39.4375 -63.5625 41.3125 -63.625 C 43.1875 -63.6875 44.867188 -63.734375 46.359375 -63.765625 C 47.847656 -63.796875 48.753906 -63.8125 49.078125 -63.8125 L 49.65625 -62.84375 L 49.171875 -50.328125 L 44.8125 -50.328125 L 44.421875 -50.71875 C 44.285156 -51.945312 44.101562 -52.914062 43.875 -53.625 C 43.65625 -54.34375 43.0625 -54.863281 42.09375 -55.1875 C 41.125 -55.507812 39.617188 -55.703125 37.578125 -55.765625 C 35.546875 -55.828125 32.71875 -55.859375 29.09375 -55.859375 L 23.5625 -55.859375 L 23.46875 -54.984375 C 23.40625 -54.078125 23.359375 -53.238281 23.328125 -52.46875 C 23.296875 -51.695312 23.257812 -50.789062 23.21875 -49.75 C 23.1875 -48.71875 23.171875 -47.457031 23.171875 -45.96875 C 23.171875 -44.476562 23.171875 -42.570312 23.171875 -40.25 L 23.171875 -36.953125 C 24.722656 -37.015625 26.210938 -37.03125 27.640625 -37 C 29.066406 -36.96875 30.390625 -36.984375 31.609375 -37.046875 C 32.835938 -37.109375 33.890625 -37.21875 34.765625 -37.375 C 35.640625 -37.539062 36.269531 -37.820312 36.65625 -38.21875 C 37.300781 -38.863281 37.625 -39.765625 37.625 -40.921875 L 38.109375 -41.40625 L 41.703125 -41.609375 L 42.09375 -41.40625 C 41.957031 -39.925781 41.84375 -38.632812 41.75 -37.53125 C 41.65625 -36.4375 41.609375 -35.175781 41.609375 -33.75 C 41.609375 -32.195312 41.65625 -30.757812 41.75 -29.4375 C 41.84375 -28.113281 41.957031 -26.675781 42.09375 -25.125 L 41.703125 -24.921875 L 38.015625 -25.125 L 37.625 -25.40625 C 37.625 -27.019531 37.332031 -28.21875 36.75 -29 C 36.238281 -29.707031 34.769531 -30.109375 32.34375 -30.203125 C 29.914062 -30.304688 27.21875 -30.359375 24.25 -30.359375 L 23.171875 -30.359375 L 23.171875 -22.40625 C 23.171875 -20.53125 23.1875 -18.976562 23.21875 -17.75 C 23.257812 -16.519531 23.296875 -15.46875 23.328125 -14.59375 C 23.359375 -13.71875 23.40625 -12.890625 23.46875 -12.109375 C 23.53125 -11.335938 23.597656 -10.4375 23.671875 -9.40625 C 23.734375 -8.175781 24.378906 -7.5625 25.609375 -7.5625 L 29.96875 -7.5625 C 33.65625 -7.5625 36.546875 -7.625 38.640625 -7.75 C 40.742188 -7.882812 42.34375 -8.191406 43.4375 -8.671875 C 44.539062 -9.160156 45.332031 -9.859375 45.8125 -10.765625 C 46.300781 -11.671875 46.742188 -12.898438 47.140625 -14.453125 L 47.515625 -14.84375 L 52.078125 -14.84375 L 50.234375 -0.578125 L 49.46875 0.390625 C 49.144531 0.390625 48.347656 0.375 47.078125 0.34375 C 45.816406 0.3125 44.410156 0.257812 42.859375 0.1875 C 41.316406 0.125 39.769531 0.078125 38.21875 0.046875 C 36.664062 0.015625 35.4375 0 34.53125 0 L 14.9375 0 C 14.476562 0 13.734375 0.03125 12.703125 0.09375 C 11.671875 0.15625 10.601562 0.21875 9.5 0.28125 C 8.40625 0.351562 7.335938 0.421875 6.296875 0.484375 C 5.265625 0.546875 4.523438 0.578125 4.078125 0.578125 L 3.875 0.1875 L 4.171875 -3.484375 L 4.65625 -3.875 C 5.6875 -3.875 6.65625 -3.921875 7.5625 -4.015625 C 8.46875 -4.117188 9.210938 -4.394531 9.796875 -4.84375 C 10.316406 -5.300781 10.816406 -5.882812 11.296875 -6.59375 C 11.785156 -7.300781 12.09375 -8.5625 12.21875 -10.375 C 12.21875 -10.832031 12.234375 -11.367188 12.265625 -11.984375 C 12.296875 -12.597656 12.328125 -13.351562 12.359375 -14.25 C 12.390625 -15.15625 12.40625 -16.253906 12.40625 -17.546875 C 12.40625 -18.847656 12.40625 -20.46875 12.40625 -22.40625 L 12.40625 -38.21875 C 12.40625 -40.476562 12.40625 -42.382812 12.40625 -43.9375 C 12.40625 -45.488281 12.40625 -46.8125 12.40625 -47.90625 C 12.40625 -49.007812 12.390625 -49.945312 12.359375 -50.71875 C 12.328125 -51.5 12.28125 -52.273438 12.21875 -53.046875 C 12.09375 -54.796875 11.785156 -56.054688 11.296875 -56.828125 C 10.816406 -57.609375 10.316406 -58.191406 9.796875 -58.578125 C 9.210938 -59.097656 8.46875 -59.390625 7.5625 -59.453125 C 6.65625 -59.515625 5.6875 -59.546875 4.65625 -59.546875 L 4.171875 -59.9375 L 3.875 -63.625 L 4.078125 -64.015625 C 4.523438 -64.015625 5.265625 -63.976562 6.296875 -63.90625 C 7.335938 -63.84375 8.453125 -63.78125 9.640625 -63.71875 C 10.835938 -63.65625 12.003906 -63.585938 13.140625 -63.515625 C 14.273438 -63.453125 15.195312 -63.421875 15.90625 -63.421875 Z M 31.8125 -63.421875 "/></g></g></g><g fill="#0097b2" fill-opacity="1"><g transform="translate(200.087253, 391.985215)"><g><path d="M 12.21875 -53.046875 C 12.09375 -54.660156 11.800781 -55.890625 11.34375 -56.734375 C 10.894531 -57.578125 10.378906 -58.191406 9.796875 -58.578125 C 9.210938 -59.097656 8.613281 -59.390625 8 -59.453125 C 7.382812 -59.515625 6.269531 -59.546875 4.65625 -59.546875 L 4.171875 -59.9375 L 3.875 -63.625 L 4.078125 -64.015625 C 4.523438 -64.015625 5.171875 -63.976562 6.015625 -63.90625 C 6.859375 -63.84375 7.765625 -63.78125 8.734375 -63.71875 C 9.703125 -63.65625 10.65625 -63.585938 11.59375 -63.515625 C 12.53125 -63.453125 13.351562 -63.421875 14.0625 -63.421875 L 23.46875 -63.421875 C 24.25 -63.421875 25.234375 -63.4375 26.421875 -63.46875 C 27.617188 -63.507812 28.832031 -63.5625 30.0625 -63.625 C 31.289062 -63.6875 32.46875 -63.734375 33.59375 -63.765625 C 34.726562 -63.796875 35.6875 -63.8125 36.46875 -63.8125 C 41.507812 -63.8125 46.015625 -62.953125 49.984375 -61.234375 C 53.960938 -59.523438 57.3125 -57.21875 60.03125 -54.3125 C 62.75 -51.40625 64.832031 -48.007812 66.28125 -44.125 C 67.738281 -40.25 68.46875 -36.144531 68.46875 -31.8125 C 68.46875 -27.539062 67.769531 -23.484375 66.375 -19.640625 C 64.988281 -15.796875 62.9375 -12.398438 60.21875 -9.453125 C 57.507812 -6.515625 54.117188 -4.171875 50.046875 -2.421875 C 45.972656 -0.679688 41.253906 0.1875 35.890625 0.1875 C 35.367188 0.1875 34.570312 0.171875 33.5 0.140625 C 32.4375 0.109375 31.304688 0.09375 30.109375 0.09375 C 28.910156 0.09375 27.742188 0.078125 26.609375 0.046875 C 25.484375 0.015625 24.597656 0 23.953125 0 L 14.9375 0 C 14.476562 0 13.734375 0.03125 12.703125 0.09375 C 11.671875 0.15625 10.601562 0.21875 9.5 0.28125 C 8.40625 0.351562 7.335938 0.421875 6.296875 0.484375 C 5.265625 0.546875 4.523438 0.578125 4.078125 0.578125 L 3.875 0.1875 L 4.171875 -3.484375 L 4.65625 -3.875 C 5.425781 -3.875 6.328125 -3.921875 7.359375 -4.015625 C 8.398438 -4.117188 9.210938 -4.363281 9.796875 -4.75 C 10.316406 -5.132812 10.800781 -5.75 11.25 -6.59375 C 11.695312 -7.4375 12.019531 -8.695312 12.21875 -10.375 C 12.21875 -10.832031 12.234375 -11.367188 12.265625 -11.984375 C 12.296875 -12.597656 12.328125 -13.351562 12.359375 -14.25 C 12.390625 -15.15625 12.40625 -16.253906 12.40625 -17.546875 C 12.40625 -18.847656 12.40625 -20.46875 12.40625 -22.40625 L 12.40625 -38.21875 C 12.40625 -38.863281 12.40625 -39.847656 12.40625 -41.171875 C 12.40625 -42.492188 12.40625 -43.898438 12.40625 -45.390625 C 12.40625 -46.878906 12.390625 -48.332031 12.359375 -49.75 C 12.328125 -51.175781 12.28125 -52.273438 12.21875 -53.046875 Z M 32.6875 -7.5625 C 36.5625 -7.5625 39.984375 -8.191406 42.953125 -9.453125 C 45.929688 -10.710938 48.4375 -12.441406 50.46875 -14.640625 C 52.507812 -16.835938 54.0625 -19.40625 55.125 -22.34375 C 56.195312 -25.289062 56.734375 -28.445312 56.734375 -31.8125 C 56.734375 -35.300781 56.179688 -38.515625 55.078125 -41.453125 C 53.984375 -44.398438 52.382812 -46.941406 50.28125 -49.078125 C 48.1875 -51.210938 45.617188 -52.875 42.578125 -54.0625 C 39.535156 -55.257812 36.078125 -55.859375 32.203125 -55.859375 L 23.671875 -55.859375 C 23.535156 -53.984375 23.453125 -52.414062 23.421875 -51.15625 C 23.390625 -49.894531 23.335938 -48.617188 23.265625 -47.328125 C 23.203125 -46.035156 23.171875 -44.628906 23.171875 -43.109375 C 23.171875 -41.585938 23.171875 -39.664062 23.171875 -37.34375 L 23.171875 -25.3125 C 23.171875 -21.4375 23.1875 -18.414062 23.21875 -16.25 C 23.257812 -14.082031 23.34375 -12.445312 23.46875 -11.34375 C 23.664062 -9.664062 24.085938 -8.613281 24.734375 -8.1875 C 25.378906 -7.769531 26.539062 -7.5625 28.21875 -7.5625 Z M 32.6875 -7.5625 "/></g></g></g><g fill="#000000" fill-opacity="1"><g transform="translate(275.544277, 391.985215)"><g/></g></g><g fill="#0097b2" fill-opacity="1"><g transform="translate(301.255213, 391.985215)"><g><path d="M 31.71875 -63.625 L 31.421875 -59.9375 L 31.03125 -59.546875 C 30 -59.546875 29.03125 -59.492188 28.125 -59.390625 C 27.21875 -59.296875 26.441406 -59.023438 25.796875 -58.578125 C 25.210938 -58.128906 24.675781 -57.546875 24.1875 -56.828125 C 23.707031 -56.117188 23.46875 -54.859375 23.46875 -53.046875 C 23.40625 -52.140625 23.359375 -51.296875 23.328125 -50.515625 C 23.296875 -49.742188 23.257812 -48.84375 23.21875 -47.8125 C 23.1875 -46.78125 23.171875 -45.519531 23.171875 -44.03125 C 23.171875 -42.539062 23.171875 -40.632812 23.171875 -38.3125 L 23.171875 -24.34375 C 23.171875 -22.019531 23.171875 -20.128906 23.171875 -18.671875 C 23.171875 -17.210938 23.1875 -16 23.21875 -15.03125 C 23.257812 -14.0625 23.296875 -13.238281 23.328125 -12.5625 C 23.359375 -11.882812 23.40625 -11.15625 23.46875 -10.375 C 23.601562 -8.5625 23.894531 -7.300781 24.34375 -6.59375 C 24.789062 -5.882812 25.273438 -5.300781 25.796875 -4.84375 C 26.378906 -4.394531 27.140625 -4.117188 28.078125 -4.015625 C 29.015625 -3.921875 30 -3.875 31.03125 -3.875 L 31.421875 -3.484375 L 31.71875 0.1875 L 31.515625 0.578125 C 31.066406 0.578125 30.320312 0.546875 29.28125 0.484375 C 28.25 0.421875 27.179688 0.351562 26.078125 0.28125 C 24.984375 0.21875 23.921875 0.15625 22.890625 0.09375 C 21.859375 0.03125 21.113281 0 20.65625 0 L 14.9375 0 C 14.476562 0 13.734375 0.03125 12.703125 0.09375 C 11.671875 0.15625 10.601562 0.21875 9.5 0.28125 C 8.40625 0.351562 7.335938 0.421875 6.296875 0.484375 C 5.265625 0.546875 4.523438 0.578125 4.078125 0.578125 L 3.875 0.1875 L 4.171875 -3.484375 L 4.65625 -3.875 C 5.6875 -3.875 6.671875 -3.921875 7.609375 -4.015625 C 8.546875 -4.117188 9.273438 -4.394531 9.796875 -4.84375 C 10.316406 -5.300781 10.785156 -5.882812 11.203125 -6.59375 C 11.617188 -7.300781 11.957031 -8.5625 12.21875 -10.375 C 12.21875 -10.832031 12.234375 -11.367188 12.265625 -11.984375 C 12.296875 -12.597656 12.328125 -13.351562 12.359375 -14.25 C 12.390625 -15.15625 12.40625 -16.253906 12.40625 -17.546875 C 12.40625 -18.847656 12.40625 -20.46875 12.40625 -22.40625 L 12.40625 -38.21875 C 12.40625 -40.476562 12.40625 -42.382812 12.40625 -43.9375 C 12.40625 -45.488281 12.390625 -46.8125 12.359375 -47.90625 C 12.328125 -49.007812 12.296875 -49.945312 12.265625 -50.71875 C 12.234375 -51.5 12.1875 -52.273438 12.125 -53.046875 C 11.988281 -54.734375 11.695312 -55.960938 11.25 -56.734375 C 10.800781 -57.515625 10.316406 -58.128906 9.796875 -58.578125 C 9.210938 -59.023438 8.46875 -59.296875 7.5625 -59.390625 C 6.65625 -59.492188 5.6875 -59.546875 4.65625 -59.546875 L 4.171875 -59.9375 L 3.875 -63.625 L 4.078125 -64.015625 C 4.523438 -64.015625 5.265625 -63.976562 6.296875 -63.90625 C 7.335938 -63.84375 8.40625 -63.78125 9.5 -63.71875 C 10.601562 -63.65625 11.671875 -63.585938 12.703125 -63.515625 C 13.734375 -63.453125 14.476562 -63.421875 14.9375 -63.421875 L 20.65625 -63.421875 C 21.113281 -63.421875 21.859375 -63.453125 22.890625 -63.515625 C 23.921875 -63.585938 24.984375 -63.65625 26.078125 -63.71875 C 27.179688 -63.78125 28.25 -63.84375 29.28125 -63.90625 C 30.320312 -63.976562 31.066406 -64.015625 31.515625 -64.015625 Z M 31.71875 -63.625 "/></g></g></g><g fill="#000000" fill-opacity="1"><g transform="translate(339.282559, 391.985215)"><g><path d="M 89.328125 0.578125 C 88.867188 0.578125 88.125 0.546875 87.09375 0.484375 C 86.0625 0.421875 84.992188 0.351562 83.890625 0.28125 C 82.796875 0.21875 81.726562 0.15625 80.6875 0.09375 C 79.65625 0.03125 78.910156 0 78.453125 0 L 72.734375 0 C 72.285156 0 71.539062 0.03125 70.5 0.09375 C 69.46875 0.15625 68.398438 0.21875 67.296875 0.28125 C 66.203125 0.351562 65.140625 0.421875 64.109375 0.484375 C 63.078125 0.546875 62.332031 0.578125 61.875 0.578125 L 61.578125 0.1875 L 61.875 -3.484375 L 62.265625 -3.875 L 63.328125 -3.875 C 65.203125 -3.875 66.671875 -4.179688 67.734375 -4.796875 C 68.804688 -5.410156 69.34375 -6.65625 69.34375 -8.53125 L 67.203125 -40.25 C 67.078125 -41.738281 67 -43.03125 66.96875 -44.125 C 66.9375 -45.226562 66.789062 -46.425781 66.53125 -47.71875 C 66.144531 -46.550781 65.53125 -44.898438 64.6875 -42.765625 C 63.84375 -40.628906 62.890625 -38.1875 61.828125 -35.4375 C 60.765625 -32.695312 59.617188 -29.773438 58.390625 -26.671875 C 57.160156 -23.566406 55.929688 -20.476562 54.703125 -17.40625 C 53.472656 -14.332031 52.320312 -11.390625 51.25 -8.578125 C 50.1875 -5.765625 49.269531 -3.328125 48.5 -1.265625 L 40.546875 -1.265625 L 23.5625 -47.421875 C 23.5625 -45.867188 23.492188 -44.59375 23.359375 -43.59375 C 23.234375 -42.59375 23.109375 -41.316406 22.984375 -39.765625 L 21.828125 -23.859375 C 21.691406 -21.722656 21.578125 -19.957031 21.484375 -18.5625 C 21.390625 -17.175781 21.320312 -16 21.28125 -15.03125 C 21.25 -14.0625 21.234375 -13.21875 21.234375 -12.5 C 21.234375 -11.789062 21.234375 -11.082031 21.234375 -10.375 C 21.234375 -8.5 21.441406 -7.207031 21.859375 -6.5 C 22.285156 -5.789062 22.757812 -5.238281 23.28125 -4.84375 C 23.789062 -4.332031 24.382812 -4.039062 25.0625 -3.96875 C 25.75 -3.90625 26.609375 -3.875 27.640625 -3.875 L 28.03125 -3.484375 L 28.3125 0.1875 L 28.125 0.578125 C 27.675781 0.578125 27.015625 0.546875 26.140625 0.484375 C 25.265625 0.421875 24.375 0.351562 23.46875 0.28125 C 22.5625 0.21875 21.671875 0.15625 20.796875 0.09375 C 19.929688 0.03125 19.269531 0 18.8125 0 L 13.09375 0 C 12.632812 0 11.90625 0.03125 10.90625 0.09375 C 9.90625 0.15625 8.835938 0.21875 7.703125 0.28125 C 6.578125 0.351562 5.507812 0.421875 4.5 0.484375 C 3.5 0.546875 2.773438 0.578125 2.328125 0.578125 L 2.140625 0.1875 L 2.421875 -3.484375 L 3 -3.875 C 3.976562 -3.875 4.914062 -3.921875 5.8125 -4.015625 C 6.71875 -4.117188 7.492188 -4.394531 8.140625 -4.84375 C 8.660156 -5.300781 9.175781 -5.882812 9.6875 -6.59375 C 10.207031 -7.300781 10.628906 -8.5625 10.953125 -10.375 C 11.085938 -11.15625 11.25 -12.222656 11.4375 -13.578125 C 11.632812 -14.929688 11.863281 -17.226562 12.125 -20.46875 L 13.484375 -38.21875 C 13.671875 -40.476562 13.8125 -42.382812 13.90625 -43.9375 C 14.007812 -45.488281 14.078125 -46.8125 14.109375 -47.90625 C 14.140625 -49.007812 14.171875 -49.945312 14.203125 -50.71875 C 14.234375 -51.5 14.25 -52.273438 14.25 -53.046875 C 14.25 -54.921875 13.972656 -56.210938 13.421875 -56.921875 C 12.878906 -57.640625 12.347656 -58.191406 11.828125 -58.578125 C 11.242188 -59.097656 10.5 -59.390625 9.59375 -59.453125 C 8.695312 -59.515625 7.726562 -59.546875 6.6875 -59.546875 L 6.203125 -59.9375 L 5.921875 -63.625 L 6.109375 -64.015625 C 6.554688 -64.015625 7.296875 -63.976562 8.328125 -63.90625 C 9.367188 -63.84375 10.4375 -63.78125 11.53125 -63.71875 C 12.632812 -63.65625 13.703125 -63.585938 14.734375 -63.515625 C 15.773438 -63.453125 16.519531 -63.421875 16.96875 -63.421875 L 24.4375 -63.421875 C 24.894531 -63.421875 25.492188 -63.453125 26.234375 -63.515625 C 26.972656 -63.585938 27.664062 -63.6875 28.3125 -63.8125 L 28.796875 -63.53125 C 28.867188 -62.625 29.113281 -61.359375 29.53125 -59.734375 C 29.945312 -58.117188 30.460938 -56.34375 31.078125 -54.40625 C 31.691406 -52.46875 32.382812 -50.414062 33.15625 -48.25 C 33.9375 -46.082031 34.71875 -43.960938 35.5 -41.890625 L 41.609375 -26.1875 C 42.316406 -24.4375 43.023438 -22.59375 43.734375 -20.65625 C 44.453125 -18.71875 45.097656 -16.875 45.671875 -15.125 C 45.867188 -15.382812 46.390625 -16.515625 47.234375 -18.515625 C 48.078125 -20.523438 49.078125 -23.015625 50.234375 -25.984375 C 51.398438 -28.960938 52.644531 -32.242188 53.96875 -35.828125 C 55.289062 -39.421875 56.550781 -42.960938 57.75 -46.453125 C 58.945312 -49.941406 59.984375 -53.191406 60.859375 -56.203125 C 61.734375 -59.210938 62.300781 -61.617188 62.5625 -63.421875 L 63.046875 -63.8125 C 63.554688 -63.6875 64.101562 -63.585938 64.6875 -63.515625 C 65.269531 -63.453125 65.820312 -63.421875 66.34375 -63.421875 L 74.671875 -63.421875 C 75.128906 -63.421875 75.875 -63.453125 76.90625 -63.515625 C 77.9375 -63.585938 79.003906 -63.65625 80.109375 -63.71875 C 81.210938 -63.78125 82.28125 -63.84375 83.3125 -63.90625 C 84.34375 -63.976562 85.085938 -64.015625 85.546875 -64.015625 L 85.734375 -63.625 L 85.4375 -59.9375 L 84.953125 -59.546875 C 83.984375 -59.546875 83.03125 -59.492188 82.09375 -59.390625 C 81.15625 -59.296875 80.394531 -59.023438 79.8125 -58.578125 C 79.300781 -58.191406 78.769531 -57.609375 78.21875 -56.828125 C 77.664062 -56.054688 77.390625 -54.796875 77.390625 -53.046875 C 77.390625 -52.140625 77.390625 -51.296875 77.390625 -50.515625 C 77.390625 -49.742188 77.421875 -48.84375 77.484375 -47.8125 C 77.554688 -46.78125 77.640625 -45.519531 77.734375 -44.03125 C 77.828125 -42.539062 77.972656 -40.632812 78.171875 -38.3125 L 79.328125 -24.34375 C 79.523438 -22.019531 79.6875 -20.128906 79.8125 -18.671875 C 79.945312 -17.210938 80.0625 -16 80.15625 -15.03125 C 80.25 -14.0625 80.328125 -13.238281 80.390625 -12.5625 C 80.460938 -11.882812 80.5625 -11.15625 80.6875 -10.375 C 80.945312 -8.5 81.332031 -7.207031 81.84375 -6.5 C 82.363281 -5.789062 82.882812 -5.238281 83.40625 -4.84375 C 83.988281 -4.332031 84.75 -4.039062 85.6875 -3.96875 C 86.625 -3.90625 87.609375 -3.875 88.640625 -3.875 L 89.125 -3.484375 L 89.421875 0.1875 Z M 89.328125 0.578125 "/></g></g></g><g fill="#000000" fill-opacity="1"><g transform="translate(433.357646, 391.985215)"><g><path d="M 43.640625 0.578125 C 43.191406 0.578125 42.476562 0.546875 41.5 0.484375 C 40.53125 0.421875 39.492188 0.351562 38.390625 0.28125 C 37.296875 0.21875 36.265625 0.15625 35.296875 0.09375 C 34.328125 0.03125 33.617188 0 33.171875 0 L 23.765625 0 C 23.304688 0 22.59375 0.03125 21.625 0.09375 C 20.65625 0.15625 19.632812 0.21875 18.5625 0.28125 C 17.5 0.351562 16.484375 0.421875 15.515625 0.484375 C 14.546875 0.546875 13.835938 0.578125 13.390625 0.578125 L 13.1875 0.1875 L 13.484375 -3.484375 L 13.96875 -3.875 C 14.9375 -3.875 16.082031 -3.90625 17.40625 -3.96875 C 18.726562 -4.039062 19.679688 -4.332031 20.265625 -4.84375 C 20.785156 -5.300781 21.300781 -5.882812 21.8125 -6.59375 C 22.332031 -7.300781 22.691406 -8.5625 22.890625 -10.375 C 22.953125 -10.832031 23 -11.367188 23.03125 -11.984375 C 23.0625 -12.597656 23.09375 -13.351562 23.125 -14.25 C 23.15625 -15.15625 23.171875 -16.253906 23.171875 -17.546875 C 23.171875 -18.847656 23.171875 -20.46875 23.171875 -22.40625 L 23.171875 -40.15625 C 23.171875 -43.707031 23.140625 -46.875 23.078125 -49.65625 C 23.015625 -52.4375 22.953125 -54.503906 22.890625 -55.859375 L 21.828125 -55.859375 C 19.367188 -55.859375 17.328125 -55.84375 15.703125 -55.8125 C 14.085938 -55.78125 12.796875 -55.710938 11.828125 -55.609375 C 10.859375 -55.515625 10.128906 -55.40625 9.640625 -55.28125 C 9.160156 -55.15625 8.820312 -54.992188 8.625 -54.796875 C 7.914062 -54.472656 7.332031 -53.953125 6.875 -53.234375 C 6.425781 -52.523438 6.140625 -51.6875 6.015625 -50.71875 L 5.625 -50.328125 L 1.453125 -50.328125 L 2.140625 -63.328125 L 2.515625 -64.203125 L 3.109375 -64.5 C 3.617188 -64.300781 4.742188 -64.117188 6.484375 -63.953125 C 8.234375 -63.796875 10.144531 -63.6875 12.21875 -63.625 C 14.289062 -63.5625 16.28125 -63.507812 18.1875 -63.46875 C 20.09375 -63.4375 21.46875 -63.421875 22.3125 -63.421875 L 34.53125 -63.421875 C 35.363281 -63.421875 36.734375 -63.4375 38.640625 -63.46875 C 40.554688 -63.507812 42.546875 -63.5625 44.609375 -63.625 C 46.679688 -63.6875 48.585938 -63.796875 50.328125 -63.953125 C 52.078125 -64.117188 53.210938 -64.300781 53.734375 -64.5 L 54.3125 -64.203125 L 54.703125 -63.328125 L 55.46875 -50.328125 L 51.203125 -50.328125 L 50.8125 -50.71875 C 50.6875 -51.6875 50.394531 -52.523438 49.9375 -53.234375 C 49.488281 -53.953125 48.910156 -54.472656 48.203125 -54.796875 C 48.003906 -55.054688 47.660156 -55.265625 47.171875 -55.421875 C 46.691406 -55.585938 45.96875 -55.703125 45 -55.765625 C 44.03125 -55.828125 42.753906 -55.859375 41.171875 -55.859375 C 39.585938 -55.859375 37.566406 -55.859375 35.109375 -55.859375 L 34.046875 -55.859375 C 33.972656 -54.304688 33.921875 -52.238281 33.890625 -49.65625 C 33.859375 -47.070312 33.84375 -43.9375 33.84375 -40.25 L 33.84375 -24.34375 C 33.84375 -22.019531 33.84375 -20.128906 33.84375 -18.671875 C 33.84375 -17.210938 33.859375 -16 33.890625 -15.03125 C 33.921875 -14.0625 33.953125 -13.238281 33.984375 -12.5625 C 34.023438 -11.882812 34.078125 -11.15625 34.140625 -10.375 C 34.265625 -8.5 34.617188 -7.207031 35.203125 -6.5 C 35.785156 -5.789062 36.335938 -5.238281 36.859375 -4.84375 C 37.109375 -4.59375 37.476562 -4.398438 37.96875 -4.265625 C 38.457031 -4.140625 38.988281 -4.039062 39.5625 -3.96875 C 40.144531 -3.90625 40.742188 -3.875 41.359375 -3.875 C 41.972656 -3.875 42.539062 -3.875 43.0625 -3.875 L 43.546875 -3.484375 L 43.84375 0.1875 Z M 43.640625 0.578125 "/></g></g></g><g fill="#000000" fill-opacity="1"><g transform="translate(492.712322, 391.985215)"><g><path d="M 31.71875 -63.625 L 31.421875 -59.9375 L 31.03125 -59.546875 C 30 -59.546875 29.03125 -59.492188 28.125 -59.390625 C 27.21875 -59.296875 26.441406 -59.023438 25.796875 -58.578125 C 25.210938 -58.128906 24.675781 -57.546875 24.1875 -56.828125 C 23.707031 -56.117188 23.46875 -54.859375 23.46875 -53.046875 C 23.40625 -52.140625 23.359375 -51.296875 23.328125 -50.515625 C 23.296875 -49.742188 23.257812 -48.84375 23.21875 -47.8125 C 23.1875 -46.78125 23.171875 -45.519531 23.171875 -44.03125 C 23.171875 -42.539062 23.171875 -40.632812 23.171875 -38.3125 L 23.171875 -24.34375 C 23.171875 -22.019531 23.171875 -20.128906 23.171875 -18.671875 C 23.171875 -17.210938 23.1875 -16 23.21875 -15.03125 C 23.257812 -14.0625 23.296875 -13.238281 23.328125 -12.5625 C 23.359375 -11.882812 23.40625 -11.15625 23.46875 -10.375 C 23.601562 -8.5625 23.894531 -7.300781 24.34375 -6.59375 C 24.789062 -5.882812 25.273438 -5.300781 25.796875 -4.84375 C 26.378906 -4.394531 27.140625 -4.117188 28.078125 -4.015625 C 29.015625 -3.921875 30 -3.875 31.03125 -3.875 L 31.421875 -3.484375 L 31.71875 0.1875 L 31.515625 0.578125 C 31.066406 0.578125 30.320312 0.546875 29.28125 0.484375 C 28.25 0.421875 27.179688 0.351562 26.078125 0.28125 C 24.984375 0.21875 23.921875 0.15625 22.890625 0.09375 C 21.859375 0.03125 21.113281 0 20.65625 0 L 14.9375 0 C 14.476562 0 13.734375 0.03125 12.703125 0.09375 C 11.671875 0.15625 10.601562 0.21875 9.5 0.28125 C 8.40625 0.351562 7.335938 0.421875 6.296875 0.484375 C 5.265625 0.546875 4.523438 0.578125 4.078125 0.578125 L 3.875 0.1875 L 4.171875 -3.484375 L 4.65625 -3.875 C 5.6875 -3.875 6.671875 -3.921875 7.609375 -4.015625 C 8.546875 -4.117188 9.273438 -4.394531 9.796875 -4.84375 C 10.316406 -5.300781 10.785156 -5.882812 11.203125 -6.59375 C 11.617188 -7.300781 11.957031 -8.5625 12.21875 -10.375 C 12.21875 -10.832031 12.234375 -11.367188 12.265625 -11.984375 C 12.296875 -12.597656 12.328125 -13.351562 12.359375 -14.25 C 12.390625 -15.15625 12.40625 -16.253906 12.40625 -17.546875 C 12.40625 -18.847656 12.40625 -20.46875 12.40625 -22.40625 L 12.40625 -38.21875 C 12.40625 -40.476562 12.40625 -42.382812 12.40625 -43.9375 C 12.40625 -45.488281 12.390625 -46.8125 12.359375 -47.90625 C 12.328125 -49.007812 12.296875 -49.945312 12.265625 -50.71875 C 12.234375 -51.5 12.1875 -52.273438 12.125 -53.046875 C 11.988281 -54.734375 11.695312 -55.960938 11.25 -56.734375 C 10.800781 -57.515625 10.316406 -58.128906 9.796875 -58.578125 C 9.210938 -59.023438 8.46875 -59.296875 7.5625 -59.390625 C 6.65625 -59.492188 5.6875 -59.546875 4.65625 -59.546875 L 4.171875 -59.9375 L 3.875 -63.625 L 4.078125 -64.015625 C 4.523438 -64.015625 5.265625 -63.976562 6.296875 -63.90625 C 7.335938 -63.84375 8.40625 -63.78125 9.5 -63.71875 C 10.601562 -63.65625 11.671875 -63.585938 12.703125 -63.515625 C 13.734375 -63.453125 14.476562 -63.421875 14.9375 -63.421875 L 20.65625 -63.421875 C 21.113281 -63.421875 21.859375 -63.453125 22.890625 -63.515625 C 23.921875 -63.585938 24.984375 -63.65625 26.078125 -63.71875 C 27.179688 -63.78125 28.25 -63.84375 29.28125 -63.90625 C 30.320312 -63.976562 31.066406 -64.015625 31.515625 -64.015625 Z M 31.71875 -63.625 "/></g></g></g><g fill="#545454" fill-opacity="1"><g transform="translate(530.731764, 391.985215)"><g><path d="M 37.4375 -64.5 L 54.125 -20.46875 C 54.695312 -18.851562 55.207031 -17.492188 55.65625 -16.390625 C 56.113281 -15.285156 56.488281 -14.34375 56.78125 -13.5625 C 57.070312 -12.789062 57.332031 -12.160156 57.5625 -11.671875 C 57.789062 -11.191406 58 -10.757812 58.1875 -10.375 C 58.96875 -8.757812 59.757812 -7.515625 60.5625 -6.640625 C 61.375 -5.765625 62.179688 -5.117188 62.984375 -4.703125 C 63.796875 -4.285156 64.617188 -4.039062 65.453125 -3.96875 C 66.296875 -3.90625 67.140625 -3.875 67.984375 -3.875 L 68.46875 -3.484375 L 68.765625 0.1875 L 68.5625 0.578125 C 68.113281 0.578125 67.4375 0.546875 66.53125 0.484375 C 65.625 0.421875 64.6875 0.351562 63.71875 0.28125 C 62.75 0.21875 61.828125 0.15625 60.953125 0.09375 C 60.078125 0.03125 59.414062 0 58.96875 0 L 51.890625 0 C 51.429688 0 50.6875 0.03125 49.65625 0.09375 C 48.625 0.15625 47.539062 0.21875 46.40625 0.28125 C 45.269531 0.351562 44.1875 0.421875 43.15625 0.484375 C 42.125 0.546875 41.378906 0.578125 40.921875 0.578125 L 40.734375 0.1875 L 41.03125 -3.484375 L 41.40625 -3.875 C 43.09375 -3.875 44.367188 -4.082031 45.234375 -4.5 C 46.109375 -4.925781 46.546875 -6.078125 46.546875 -7.953125 C 46.546875 -8.984375 46.367188 -10.453125 46.015625 -12.359375 C 45.660156 -14.265625 44.835938 -16.644531 43.546875 -19.5 L 41.515625 -24.15625 L 24.53125 -24.15625 L 22.59375 -19.5 C 21.4375 -16.644531 20.566406 -14.21875 19.984375 -12.21875 C 19.398438 -10.21875 19.109375 -8.796875 19.109375 -7.953125 C 19.109375 -6.398438 19.429688 -5.332031 20.078125 -4.75 C 20.722656 -4.164062 21.882812 -3.875 23.5625 -3.875 L 24.046875 -3.484375 L 24.34375 0.1875 L 24.15625 0.578125 C 23.695312 0.578125 22.984375 0.546875 22.015625 0.484375 C 21.046875 0.421875 20.023438 0.351562 18.953125 0.28125 C 17.890625 0.21875 16.875 0.15625 15.90625 0.09375 C 14.9375 0.03125 14.222656 0 13.765625 0 L 8.046875 0 C 7.597656 0 6.921875 0.03125 6.015625 0.09375 C 5.109375 0.15625 4.171875 0.21875 3.203125 0.28125 C 2.234375 0.351562 1.3125 0.421875 0.4375 0.484375 C -0.4375 0.546875 -1.097656 0.578125 -1.546875 0.578125 L -1.65625 0.1875 L -1.453125 -3.484375 L -0.96875 -3.875 C -0.125 -3.875 0.710938 -3.9375 1.546875 -4.0625 C 2.390625 -4.195312 3.226562 -4.488281 4.0625 -4.9375 C 4.90625 -5.394531 5.734375 -6.023438 6.546875 -6.828125 C 7.359375 -7.640625 8.179688 -8.691406 9.015625 -9.984375 C 9.210938 -10.378906 9.503906 -10.976562 9.890625 -11.78125 C 10.273438 -12.59375 10.890625 -14.03125 11.734375 -16.09375 C 12.578125 -18.164062 13.738281 -21.109375 15.21875 -24.921875 C 16.707031 -28.734375 18.679688 -33.8125 21.140625 -40.15625 L 29.484375 -61.578125 L 36.375 -64.5 Z M 26.1875 -31.234375 L 38.890625 -31.234375 L 32.6875 -48.390625 Z M 26.1875 -31.234375 "/></g></g></g><g fill="#0097b2" fill-opacity="1"><g transform="translate(600.95051, 391.985215)"><g><path d="M 5.046875 -51.015625 L 6.59375 -63.421875 L 7.375 -64.203125 C 15.582031 -63.816406 22.445312 -63.585938 27.96875 -63.515625 C 33.5 -63.453125 37.109375 -63.421875 38.796875 -63.421875 L 48.109375 -63.421875 C 48.492188 -63.421875 49.023438 -63.4375 49.703125 -63.46875 C 50.378906 -63.507812 51.085938 -63.5625 51.828125 -63.625 C 52.578125 -63.6875 53.320312 -63.765625 54.0625 -63.859375 C 54.8125 -63.960938 55.476562 -64.078125 56.0625 -64.203125 L 56.828125 -62.171875 L 56.34375 -59.75 C 55.25 -58.582031 53.648438 -56.671875 51.546875 -54.015625 C 49.441406 -51.367188 47.144531 -48.347656 44.65625 -44.953125 C 42.164062 -41.554688 39.59375 -37.953125 36.9375 -34.140625 C 34.289062 -30.328125 31.835938 -26.691406 29.578125 -23.234375 C 27.316406 -19.773438 25.378906 -16.671875 23.765625 -13.921875 C 22.148438 -11.171875 21.144531 -9.148438 20.75 -7.859375 L 21.234375 -7.5625 L 27.0625 -7.5625 C 32.425781 -7.5625 36.707031 -7.609375 39.90625 -7.703125 C 43.101562 -7.804688 45.578125 -8.066406 47.328125 -8.484375 C 49.078125 -8.898438 50.304688 -9.5625 51.015625 -10.46875 C 51.722656 -11.375 52.269531 -12.632812 52.65625 -14.25 L 53.25 -14.84375 L 57.796875 -14.84375 L 56.0625 -0.390625 L 55.1875 0.578125 C 54.863281 0.578125 54.085938 0.5625 52.859375 0.53125 C 51.628906 0.5 50.15625 0.453125 48.4375 0.390625 C 46.726562 0.328125 44.898438 0.273438 42.953125 0.234375 C 41.015625 0.203125 39.15625 0.171875 37.375 0.140625 C 35.601562 0.109375 34.003906 0.078125 32.578125 0.046875 C 31.160156 0.015625 30.160156 0 29.578125 0 L 14.0625 0 C 12.632812 0 11.03125 0.0625 9.25 0.1875 C 7.476562 0.320312 5.753906 0.453125 4.078125 0.578125 L 3.109375 -1.453125 L 3.109375 -3.6875 C 4.335938 -4.914062 5.953125 -6.757812 7.953125 -9.21875 C 9.953125 -11.675781 12.113281 -14.503906 14.4375 -17.703125 C 16.769531 -20.898438 19.164062 -24.289062 21.625 -27.875 C 24.082031 -31.46875 26.410156 -34.976562 28.609375 -38.40625 C 30.804688 -41.832031 32.757812 -45.03125 34.46875 -48 C 36.1875 -50.976562 37.5 -53.4375 38.40625 -55.375 L 37.921875 -55.859375 L 26.09375 -55.859375 C 22.851562 -55.859375 20.226562 -55.828125 18.21875 -55.765625 C 16.21875 -55.703125 14.632812 -55.492188 13.46875 -55.140625 C 12.3125 -54.785156 11.472656 -54.265625 10.953125 -53.578125 C 10.441406 -52.898438 10.085938 -51.976562 9.890625 -50.8125 L 9.3125 -50.328125 L 5.625 -50.328125 Z M 5.046875 -51.015625 "/></g></g></g><path fill="#a3cae3" d="M 667.164062 506.828125 C 664.078125 508.5 657.402344 499.796875 655.648438 495.949219 L 666.433594 494.628906 L 669.839844 502.523438 L 667.164062 506.828125 " fill-opacity="1" fill-rule="nonzero"/><path fill="#091626" d="M 680.710938 516.761719 C 677.238281 518.644531 669.726562 508.847656 667.746094 504.515625 L 679.886719 503.03125 L 683.722656 511.917969 L 680.710938 516.761719 " fill-opacity="1" fill-rule="nonzero"/><path fill="#feb87a" d="M 534.613281 515.660156 C 533.808594 517.570312 531.804688 520.484375 529.421875 522.613281 C 527.246094 524.5625 525.253906 524.9375 522.429688 524.195312 C 519.226562 523.367188 515.886719 520.441406 515.707031 516.925781 C 515.542969 513.957031 517.261719 510.894531 520.328125 508.148438 C 526.832031 506.964844 537.597656 508.566406 534.613281 515.660156 " fill-opacity="1" fill-rule="nonzero"/><path fill="#f5ab76" d="M 639.769531 516.648438 C 636.464844 520.839844 631.796875 522.09375 626.285156 518.082031 L 626.027344 518.007812 L 626.027344 518.019531 L 626.058594 518.097656 C 626.070312 518.117188 626.078125 518.117188 626.078125 518.113281 C 626.082031 518.113281 626.078125 518.109375 626.085938 518.140625 C 629.515625 521.882812 629.289062 527.027344 626.101562 530.679688 C 622.78125 534.464844 617.660156 535.476562 612.992188 531.746094 C 615.105469 535.382812 613.75 539.410156 610.804688 542.324219 C 607.765625 545.324219 603.324219 545.023438 598.898438 542.097656 C 598.570312 541.871094 598.253906 541.554688 597.976562 541.191406 C 598.027344 543.289062 597.226562 545.429688 596.121094 547.167969 C 593.839844 550.769531 589.308594 552.144531 582.648438 548.207031 L 519.03125 507.28125 C 514.183594 504.25 510.378906 502.53125 507.507812 501.609375 C 505.046875 500.792969 503.261719 500.582031 502.101562 500.613281 L 517.972656 447.742188 C 518.324219 447.984375 518.683594 448.210938 519.0625 448.40625 C 526.796875 453.050781 538.351562 454.863281 543.320312 455.332031 C 543.515625 455.359375 543.726562 455.359375 543.90625 455.359375 L 543.984375 455.359375 C 544.90625 455.359375 545.8125 455.179688 546.671875 454.804688 L 546.746094 454.773438 C 546.746094 454.773438 561.535156 449.597656 568.601562 445.539062 C 572.289062 443.429688 576.742188 444.09375 580.625 445.644531 C 583.886719 446.957031 584.824219 449.023438 587 451.527344 C 590.820312 455.902344 594.824219 460.140625 598.734375 464.441406 C 607.054688 473.523438 613.445312 482.300781 622.765625 490.371094 C 625.996094 493.175781 634.152344 498.746094 638.082031 503.332031 C 642.488281 508.472656 642.957031 512.578125 639.769531 516.648438 " fill-opacity="1" fill-rule="nonzero"/><path fill="#091626" d="M 650.734375 441.1875 L 649.464844 443.960938 L 647.242188 448.796875 C 646.085938 447.320312 645.09375 441.15625 646.289062 440.222656 L 646.300781 440.214844 L 646.335938 440.203125 C 646.886719 440.078125 650.734375 441.1875 650.734375 441.1875 " fill-opacity="1" fill-rule="nonzero"/><path fill="#a3cae3" d="M 641.945312 445.832031 C 640.675781 446.597656 641.664062 452.351562 642.820312 453.828125 L 646.3125 446.21875 L 642.074219 445.832031 L 641.945312 445.832031 " fill-opacity="1" fill-rule="nonzero"/><path fill="#f29a63" d="M 626.058594 518.097656 C 623.871094 516.632812 621.878906 515.011719 619.902344 513.324219 C 617.90625 511.570312 615.964844 509.777344 614.179688 507.796875 C 616.398438 509.273438 618.460938 510.949219 620.476562 512.671875 C 622.398438 514.359375 624.289062 516.097656 626.023438 517.992188 L 626.023438 518.011719 L 626.058594 518.097656 " fill-opacity="1" fill-rule="nonzero"/><path fill="#f29a63" d="M 613.246094 531.910156 C 613.246094 531.910156 609.515625 529.226562 608.058594 528.023438 C 606.457031 526.621094 604.851562 525.300781 603.480469 523.640625 C 605.386719 524.726562 607.070312 526.03125 608.710938 527.394531 C 610.308594 528.792969 611.871094 530.234375 613.246094 531.910156 " fill-opacity="1" fill-rule="nonzero"/><path fill="#f29a63" d="M 597.988281 541.183594 C 597.988281 541.183594 595.933594 539.792969 594.996094 538.953125 C 594.097656 538.058594 592.601562 536.242188 592.488281 535.964844 C 592.644531 535.964844 594.542969 537.5 595.476562 538.34375 C 596.371094 539.242188 597.859375 540.875 597.988281 541.183594 " fill-opacity="1" fill-rule="nonzero"/><path fill="#f29a63" d="M 552.714844 458.679688 C 551.382812 457.441406 549.753906 456.6875 548.058594 456.175781 C 546.734375 455.78125 545.34375 455.527344 543.984375 455.359375 C 544.90625 455.359375 545.8125 455.179688 546.671875 454.804688 C 547.246094 455 547.789062 455.226562 548.335938 455.464844 C 549.996094 456.25 551.578125 457.277344 552.714844 458.679688 " fill-opacity="1" fill-rule="nonzero"/><path fill="#ffc087" d="M 667.796875 498.019531 L 667.742188 498.023438 C 666.566406 498.089844 662.691406 498.492188 661.371094 498.710938 C 660.941406 498.785156 660.507812 498.867188 660.070312 498.949219 C 655.035156 499.90625 649.664062 501.488281 649.664062 501.488281 C 649.46875 502.289062 645.554688 506.4375 641.371094 508.683594 C 640.8125 507.007812 639.726562 505.246094 638.082031 503.332031 C 634.96875 499.695312 629.199219 495.441406 625.332031 492.4375 L 625.320312 492.425781 L 625.300781 492.425781 C 625.046875 492.304688 624.820312 492.199219 624.5625 492.058594 C 609.804688 485.121094 593.464844 470.550781 588.660156 465.40625 C 588.570312 465.300781 588.476562 465.195312 588.386719 465.105469 L 588.359375 465.074219 C 588.359375 465.074219 588.238281 465.210938 587.984375 465.480469 C 586.878906 466.570312 583.222656 469.660156 574.644531 472.707031 C 574.507812 472.753906 574.359375 472.8125 574.203125 472.859375 C 574.691406 478.304688 571.246094 483.144531 566.382812 485.425781 C 563.921875 486.585938 559.449219 487.144531 556.792969 485.699219 C 555.929688 485.210938 554.949219 483.917969 554.675781 482.8125 C 554.632812 482.617188 554.601562 482.421875 554.601562 482.226562 L 554.601562 482.210938 C 554.554688 480.851562 555.269531 479.390625 555.6875 477.746094 C 555.71875 477.640625 555.75 477.519531 555.78125 477.414062 C 556.203125 475.46875 557.078125 472.722656 557.5625 470.523438 C 557.621094 470.175781 557.699219 469.839844 557.757812 469.511719 C 558.042969 467.808594 558.242188 466.101562 558.273438 464.382812 C 558.316406 461.589844 560.371094 459.449219 562.546875 457.699219 C 568.332031 453.039062 578.117188 448.558594 582.511719 446.640625 L 582.527344 446.640625 C 583.917969 446.039062 584.777344 445.691406 584.792969 445.691406 C 590.667969 442.523438 597.84375 445.78125 603.597656 447.636719 C 610.457031 449.855469 617.449219 452.371094 623.566406 456.234375 C 623.972656 456.492188 624.410156 456.65625 624.878906 456.714844 C 625.964844 456.929688 627.175781 456.703125 628.246094 456.339844 L 628.382812 456.296875 C 631.539062 455.195312 638.988281 451.828125 643.125 449.914062 C 644.890625 449.101562 646.054688 448.558594 646.054688 448.558594 C 686.503906 460.15625 667.796875 498.019531 667.796875 498.019531 " fill-opacity="1" fill-rule="nonzero"/><path fill="#f29d66" d="M 641.6875 509.921875 L 641.667969 509.839844 C 641.675781 509.855469 641.683594 509.875 641.6875 509.890625 L 641.6875 509.921875 " fill-opacity="1" fill-rule="nonzero"/><path fill="#fdeadd" d="M 640.445312 506.621094 C 640.441406 506.617188 640.4375 506.613281 640.433594 506.605469 C 640.4375 506.613281 640.441406 506.617188 640.445312 506.621094 M 640.179688 506.171875 C 639.621094 505.257812 638.921875 504.3125 638.082031 503.332031 C 638.136719 503.398438 638.195312 503.46875 638.253906 503.535156 C 638.992188 504.410156 639.609375 505.25 640.117188 506.066406 C 640.136719 506.101562 640.15625 506.136719 640.179688 506.171875 M 637.519531 502.699219 C 637.3125 502.476562 637.09375 502.246094 636.871094 502.019531 C 636.941406 502.085938 637.003906 502.152344 637.070312 502.222656 C 637.132812 502.285156 637.195312 502.351562 637.257812 502.417969 C 637.347656 502.511719 637.433594 502.605469 637.519531 502.699219 M 636.628906 501.773438 C 636.371094 501.511719 636.105469 501.253906 635.828125 500.992188 C 635.847656 501.011719 635.871094 501.03125 635.890625 501.050781 C 636.121094 501.269531 636.347656 501.488281 636.566406 501.703125 C 636.585938 501.726562 636.605469 501.75 636.628906 501.773438 M 635.371094 500.566406 C 634.828125 500.066406 634.257812 499.558594 633.675781 499.058594 C 633.804688 499.167969 633.9375 499.28125 634.066406 499.394531 C 634.496094 499.769531 634.914062 500.144531 635.320312 500.515625 C 635.335938 500.53125 635.351562 500.546875 635.371094 500.566406 M 633.199219 498.65625 C 630.824219 496.648438 628.234375 494.679688 626.085938 493.027344 C 626.089844 493.027344 626.089844 493.027344 626.09375 493.027344 C 626.707031 493.5 627.359375 494 628.03125 494.523438 C 628.195312 494.644531 628.355469 494.769531 628.519531 494.898438 C 628.621094 494.976562 628.726562 495.054688 628.828125 495.136719 C 630.183594 496.1875 631.59375 497.304688 632.945312 498.4375 C 633.03125 498.511719 633.113281 498.582031 633.199219 498.65625 M 625.578125 492.632812 C 625.488281 492.5625 625.398438 492.492188 625.308594 492.425781 L 625.320312 492.425781 L 625.332031 492.4375 C 625.355469 492.457031 625.378906 492.472656 625.402344 492.492188 C 625.460938 492.535156 625.519531 492.582031 625.578125 492.628906 C 625.578125 492.628906 625.578125 492.628906 625.578125 492.632812 " fill-opacity="1" fill-rule="nonzero"/><path fill="#f29d66" d="M 641.667969 509.839844 C 641.0625 508.378906 640.058594 506.839844 638.636719 505.183594 C 635.527344 501.550781 629.757812 497.296875 625.890625 494.296875 L 625.875 494.28125 L 625.859375 494.28125 C 625.605469 494.15625 625.378906 494.050781 625.121094 493.917969 C 610.363281 486.976562 594.023438 472.40625 589.21875 467.261719 C 589.128906 467.15625 589.039062 467.050781 588.945312 466.960938 L 588.917969 466.929688 C 588.917969 466.929688 588.796875 467.066406 588.539062 467.335938 C 587.4375 468.425781 583.78125 471.515625 575.203125 474.5625 C 575.066406 474.605469 574.917969 474.667969 574.765625 474.714844 C 575.246094 480.160156 571.804688 485 566.941406 487.277344 C 565.523438 487.949219 563.433594 488.417969 561.414062 488.417969 C 559.925781 488.417969 558.476562 488.164062 557.351562 487.550781 C 556.488281 487.066406 555.507812 485.773438 555.234375 484.667969 C 555.191406 484.472656 555.160156 484.277344 555.160156 484.082031 L 555.160156 484.066406 L 555.171875 483.972656 C 555.554688 484.621094 556.082031 485.21875 556.589844 485.570312 C 556.613281 485.585938 556.636719 485.601562 556.65625 485.613281 C 556.703125 485.644531 556.746094 485.671875 556.792969 485.699219 C 557.917969 486.308594 559.371094 486.5625 560.855469 486.5625 C 562.878906 486.5625 564.964844 486.09375 566.382812 485.425781 C 566.628906 485.308594 566.875 485.1875 567.113281 485.058594 C 571.585938 482.652344 574.664062 478.027344 574.207031 472.859375 C 574.214844 472.855469 574.222656 472.851562 574.234375 472.851562 C 574.375 472.804688 574.515625 472.75 574.644531 472.707031 C 576.851562 471.921875 578.730469 471.136719 580.328125 470.382812 C 584.933594 468.203125 587.160156 466.289062 587.984375 465.480469 C 588.078125 465.378906 588.15625 465.292969 588.214844 465.230469 C 588.238281 465.207031 588.257812 465.1875 588.273438 465.164062 C 588.328125 465.109375 588.355469 465.078125 588.359375 465.074219 L 588.375 465.089844 L 588.386719 465.105469 C 588.476562 465.191406 588.5625 465.292969 588.648438 465.394531 C 588.65625 465.398438 588.65625 465.402344 588.660156 465.40625 C 593.421875 470.507812 609.53125 484.878906 624.191406 491.886719 C 624.3125 491.945312 624.4375 492.003906 624.5625 492.058594 C 624.574219 492.066406 624.585938 492.074219 624.597656 492.082031 C 624.820312 492.199219 625.027344 492.292969 625.25 492.398438 C 625.265625 492.40625 625.285156 492.414062 625.300781 492.425781 L 625.308594 492.425781 C 625.398438 492.492188 625.488281 492.5625 625.578125 492.632812 C 625.550781 492.664062 625.527344 492.695312 625.5 492.726562 L 625.785156 493.175781 C 625.886719 493.128906 625.988281 493.078125 626.085938 493.027344 C 628.234375 494.679688 630.824219 496.648438 633.199219 498.65625 C 633.28125 498.726562 633.363281 498.796875 633.441406 498.867188 C 633.519531 498.929688 633.597656 498.992188 633.675781 499.058594 C 634.257812 499.558594 634.828125 500.066406 635.371094 500.566406 C 635.410156 500.601562 635.445312 500.636719 635.484375 500.671875 C 635.597656 500.785156 635.714844 500.890625 635.828125 500.992188 C 636.105469 501.253906 636.371094 501.511719 636.628906 501.773438 C 636.683594 501.828125 636.738281 501.886719 636.796875 501.941406 C 636.820312 501.96875 636.847656 501.992188 636.871094 502.019531 C 637.09375 502.246094 637.3125 502.476562 637.519531 502.699219 C 637.714844 502.910156 637.898438 503.121094 638.082031 503.332031 C 638.921875 504.3125 639.621094 505.257812 640.179688 506.171875 C 640.246094 506.285156 640.3125 506.402344 640.375 506.511719 C 640.394531 506.542969 640.414062 506.574219 640.433594 506.605469 C 640.4375 506.613281 640.441406 506.617188 640.445312 506.621094 C 640.496094 506.71875 640.550781 506.8125 640.597656 506.910156 C 640.617188 506.945312 640.632812 506.976562 640.648438 507.011719 C 640.675781 507.0625 640.703125 507.109375 640.730469 507.160156 C 640.820312 507.339844 640.910156 507.523438 640.988281 507.707031 C 641.039062 507.820312 641.085938 507.9375 641.128906 508.050781 C 641.210938 508.238281 641.28125 508.429688 641.347656 508.621094 C 641.355469 508.640625 641.363281 508.664062 641.371094 508.683594 L 641.667969 509.839844 " fill-opacity="1" fill-rule="nonzero"/><path fill="#fcb075" d="M 641.371094 508.683594 C 641.363281 508.664062 641.355469 508.640625 641.347656 508.621094 C 641.355469 508.640625 641.367188 508.664062 641.371094 508.683594 M 640.988281 507.707031 C 640.910156 507.523438 640.820312 507.339844 640.730469 507.160156 C 640.824219 507.339844 640.910156 507.523438 640.988281 507.707031 M 640.597656 506.910156 C 640.550781 506.8125 640.496094 506.71875 640.445312 506.621094 C 640.441406 506.617188 640.4375 506.613281 640.433594 506.605469 C 640.496094 506.707031 640.550781 506.808594 640.597656 506.910156 M 640.117188 506.066406 C 639.609375 505.25 638.992188 504.410156 638.253906 503.535156 C 638.992188 504.402344 639.613281 505.246094 640.117188 506.066406 M 637.257812 502.417969 C 637.195312 502.351562 637.132812 502.285156 637.070312 502.222656 C 637.132812 502.285156 637.195312 502.351562 637.257812 502.417969 M 636.566406 501.703125 C 636.347656 501.488281 636.121094 501.269531 635.890625 501.050781 C 635.992188 501.144531 636.09375 501.238281 636.191406 501.339844 C 636.320312 501.457031 636.441406 501.582031 636.566406 501.703125 M 635.320312 500.515625 C 634.914062 500.144531 634.496094 499.769531 634.066406 499.394531 C 634.222656 499.53125 634.375 499.664062 634.53125 499.800781 C 634.789062 500.035156 635.0625 500.269531 635.320312 500.515625 M 632.945312 498.4375 C 631.59375 497.304688 630.183594 496.1875 628.828125 495.136719 C 629.652344 495.773438 630.496094 496.445312 631.34375 497.117188 C 631.878906 497.550781 632.417969 497.992188 632.945312 498.4375 M 628.03125 494.523438 C 627.359375 494 626.707031 493.5 626.09375 493.027344 C 626.09375 493.023438 626.09375 493.023438 626.09375 493.023438 C 626.375 493.238281 626.664062 493.464844 626.964844 493.691406 C 627.316406 493.960938 627.671875 494.242188 628.03125 494.523438 M 625.578125 492.628906 C 625.519531 492.582031 625.460938 492.535156 625.402344 492.492188 C 625.460938 492.535156 625.519531 492.582031 625.582031 492.628906 C 625.582031 492.628906 625.578125 492.628906 625.578125 492.628906 M 625.304688 492.425781 L 625.300781 492.425781 C 625.285156 492.414062 625.265625 492.40625 625.25 492.398438 C 625.265625 492.40625 625.285156 492.414062 625.304688 492.425781 M 624.597656 492.082031 C 624.585938 492.074219 624.574219 492.066406 624.5625 492.058594 C 624.4375 492.003906 624.3125 491.945312 624.191406 491.886719 C 624.3125 491.945312 624.4375 492.003906 624.5625 492.0625 C 624.574219 492.066406 624.585938 492.074219 624.597656 492.082031 M 560.855469 486.5625 C 559.371094 486.5625 557.917969 486.308594 556.792969 485.699219 C 556.746094 485.671875 556.703125 485.644531 556.65625 485.613281 C 556.703125 485.644531 556.746094 485.671875 556.792969 485.695312 C 557.917969 486.308594 559.371094 486.5625 560.855469 486.5625 C 562.878906 486.5625 564.964844 486.09375 566.382812 485.421875 C 566.628906 485.308594 566.875 485.1875 567.113281 485.058594 C 566.875 485.1875 566.628906 485.308594 566.382812 485.425781 C 564.964844 486.09375 562.878906 486.5625 560.855469 486.5625 M 556.589844 485.570312 C 556.082031 485.21875 555.554688 484.621094 555.171875 483.972656 L 555.175781 483.945312 C 555.5625 484.597656 556.078125 485.21875 556.589844 485.570312 M 580.328125 470.382812 C 584.933594 468.203125 587.160156 466.289062 587.980469 465.480469 C 588.078125 465.378906 588.15625 465.292969 588.214844 465.230469 C 588.15625 465.292969 588.078125 465.378906 587.984375 465.480469 C 587.160156 466.289062 584.933594 468.203125 580.328125 470.382812 M 588.648438 465.394531 C 588.5625 465.292969 588.476562 465.191406 588.386719 465.105469 L 588.375 465.089844 L 588.390625 465.105469 C 588.476562 465.191406 588.5625 465.292969 588.648438 465.394531 M 588.273438 465.164062 C 588.332031 465.105469 588.359375 465.074219 588.359375 465.074219 C 588.355469 465.078125 588.328125 465.109375 588.273438 465.164062 " fill-opacity="1" fill-rule="nonzero"/><path fill="#ffecdb" d="M 625.332031 492.4375 L 625.320312 492.425781 L 625.332031 492.4375 C 625.332031 492.4375 625.332031 492.4375 625.335938 492.4375 C 625.332031 492.4375 625.332031 492.4375 625.332031 492.4375 " fill-opacity="1" fill-rule="nonzero"/><path fill="#ffb274" d="M 625.335938 492.4375 C 625.332031 492.4375 625.332031 492.4375 625.332031 492.4375 L 625.320312 492.425781 C 625.058594 492.304688 624.820312 492.199219 624.5625 492.0625 C 625.03125 491.59375 625.4375 491.066406 625.816406 490.523438 C 626.480469 489.527344 627.023438 488.457031 627.492188 487.339844 C 628.445312 485.152344 629.15625 482.796875 629.230469 480.402344 L 629.378906 480.402344 C 629.910156 481.625 629.96875 482.964844 629.847656 484.234375 C 629.726562 485.527344 629.367188 486.75 628.882812 487.945312 C 628.355469 489.105469 627.703125 490.238281 626.78125 491.203125 C 626.359375 491.652344 625.875 492.09375 625.335938 492.4375 " fill-opacity="1" fill-rule="nonzero"/><path fill="#ffb274" d="M 626.09375 493.023438 C 625.917969 492.890625 625.746094 492.757812 625.582031 492.628906 C 626.675781 491.351562 627.839844 490.132812 629.125 489.058594 C 629.925781 488.410156 630.785156 487.824219 631.675781 487.339844 C 632.597656 486.871094 633.550781 486.433594 634.621094 486.433594 L 634.605469 486.585938 C 633.671875 487.128906 632.992188 487.792969 632.25 488.382812 C 631.539062 489.015625 630.816406 489.601562 630.089844 490.222656 C 629.320312 490.808594 628.578125 491.425781 627.75 492.003906 C 627.230469 492.363281 626.691406 492.710938 626.09375 493.023438 " fill-opacity="1" fill-rule="nonzero"/><path fill="#fcd8bd" d="M 626.085938 493.027344 C 625.914062 492.894531 625.742188 492.761719 625.578125 492.632812 C 625.578125 492.628906 625.578125 492.628906 625.578125 492.628906 C 625.746094 492.757812 625.917969 492.890625 626.09375 493.027344 C 626.089844 493.027344 626.089844 493.027344 626.085938 493.027344 " fill-opacity="1" fill-rule="nonzero"/><path fill="#f29158" d="M 625.785156 493.175781 L 625.5 492.726562 C 625.527344 492.695312 625.550781 492.664062 625.578125 492.632812 C 625.742188 492.761719 625.914062 492.894531 626.085938 493.027344 C 625.988281 493.078125 625.886719 493.128906 625.785156 493.175781 " fill-opacity="1" fill-rule="nonzero"/><path fill="#fca364" d="M 626.09375 493.027344 C 625.917969 492.890625 625.746094 492.757812 625.578125 492.628906 C 625.578125 492.628906 625.582031 492.628906 625.582031 492.628906 C 625.746094 492.757812 625.917969 492.890625 626.09375 493.023438 C 626.09375 493.023438 626.09375 493.023438 626.09375 493.027344 " fill-opacity="1" fill-rule="nonzero"/><path fill="#ffb274" d="M 620.421875 460.535156 C 620.753906 459.839844 621.375 459.3125 621.964844 458.8125 C 622.550781 458.316406 623.1875 457.863281 623.824219 457.425781 C 624.167969 457.1875 624.53125 456.945312 624.878906 456.71875 C 625.167969 456.773438 625.464844 456.800781 625.765625 456.800781 C 626.601562 456.800781 627.460938 456.605469 628.246094 456.339844 C 626.886719 456.886719 625.53125 457.441406 624.199219 458.074219 C 623.519531 458.40625 622.824219 458.738281 622.175781 459.128906 C 621.539062 459.523438 620.863281 459.902344 620.421875 460.535156 " fill-opacity="1" fill-rule="nonzero"/><path fill="#f59e65" d="M 574.207031 472.859375 C 574.359375 472.8125 574.507812 472.753906 574.644531 472.707031 C 574.515625 472.75 574.375 472.804688 574.234375 472.851562 C 574.222656 472.851562 574.214844 472.855469 574.207031 472.859375 " fill-opacity="1" fill-rule="nonzero"/><path fill="#ffb274" d="M 574.207031 472.859375 C 574.296875 472.207031 574.160156 471.652344 573.933594 470.898438 C 573.722656 470.140625 573.421875 469.464844 573.074219 468.726562 C 573.496094 468.96875 573.84375 469.269531 574.101562 469.613281 C 574.222656 469.796875 574.324219 469.980469 574.402344 470.175781 C 574.464844 470.308594 574.539062 470.460938 574.585938 470.597656 C 574.644531 470.746094 574.675781 470.898438 574.703125 471.0625 C 574.765625 471.378906 574.8125 471.710938 574.78125 472.027344 C 574.75 472.257812 574.71875 472.480469 574.644531 472.707031 C 574.507812 472.753906 574.359375 472.8125 574.207031 472.859375 " fill-opacity="1" fill-rule="nonzero"/><path fill="#f29158" d="M 574.207031 472.859375 C 574.214844 472.855469 574.222656 472.851562 574.234375 472.851562 C 574.222656 472.851562 574.214844 472.855469 574.207031 472.859375 " fill-opacity="1" fill-rule="nonzero"/><path fill="#f59e65" d="M 588.660156 465.40625 C 588.65625 465.402344 588.65625 465.398438 588.648438 465.394531 C 588.65625 465.398438 588.65625 465.402344 588.660156 465.40625 " fill-opacity="1" fill-rule="nonzero"/><path fill="#ffb274" d="M 588.660156 465.40625 C 588.65625 465.402344 588.65625 465.398438 588.648438 465.394531 C 588.5625 465.292969 588.476562 465.191406 588.390625 465.105469 L 588.402344 465.042969 C 588.480469 464.863281 588.539062 464.683594 588.613281 464.5 L 589.097656 463.039062 C 589.28125 462.554688 589.445312 462.058594 589.65625 461.574219 C 589.871094 461.09375 590.082031 460.59375 590.382812 460.140625 C 590.367188 461.226562 590.15625 462.269531 589.808594 463.277344 C 589.625 463.792969 589.429688 464.289062 589.128906 464.757812 C 588.992188 464.984375 588.828125 465.210938 588.660156 465.40625 " fill-opacity="1" fill-rule="nonzero"/><path fill="#f29158" d="M 588.660156 465.40625 C 588.65625 465.402344 588.65625 465.398438 588.648438 465.394531 C 588.65625 465.398438 588.65625 465.402344 588.660156 465.40625 " fill-opacity="1" fill-rule="nonzero"/><path fill="#fca364" d="M 588.648438 465.394531 C 588.5625 465.292969 588.476562 465.191406 588.390625 465.105469 C 588.476562 465.191406 588.5625 465.292969 588.648438 465.394531 " fill-opacity="1" fill-rule="nonzero"/><path fill="#f59e65" d="M 588.214844 465.230469 C 588.238281 465.207031 588.257812 465.1875 588.273438 465.164062 C 588.257812 465.1875 588.238281 465.207031 588.214844 465.230469 M 588.375 465.089844 L 588.359375 465.074219 L 588.375 465.089844 " fill-opacity="1" fill-rule="nonzero"/><path fill="#ffb274" d="M 587.980469 465.480469 C 588.011719 464.621094 587.84375 463.839844 587.632812 463.039062 C 587.390625 462.089844 587.058594 461.167969 586.789062 460.140625 C 587.179688 460.488281 587.484375 460.925781 587.753906 461.378906 C 588.023438 461.832031 588.222656 462.328125 588.375 462.84375 C 588.554688 463.539062 588.613281 464.335938 588.402344 465.042969 L 588.390625 465.105469 L 588.359375 465.074219 C 588.359375 465.074219 588.332031 465.105469 588.273438 465.164062 C 588.257812 465.1875 588.238281 465.207031 588.214844 465.230469 C 588.15625 465.292969 588.078125 465.378906 587.980469 465.480469 " fill-opacity="1" fill-rule="nonzero"/><path fill="#f5a068" d="M 554.601562 482.230469 L 554.601562 482.214844 C 554.585938 481.851562 554.628906 481.476562 554.707031 481.089844 C 554.632812 481.472656 554.589844 481.847656 554.601562 482.210938 L 554.601562 482.226562 C 554.601562 482.226562 554.601562 482.230469 554.601562 482.230469 M 555.195312 479.378906 C 555.363281 478.855469 555.542969 478.316406 555.6875 477.75 C 555.71875 477.644531 555.746094 477.527344 555.777344 477.421875 C 555.886719 476.910156 556.03125 476.339844 556.191406 475.742188 C 556.03125 476.339844 555.890625 476.90625 555.78125 477.414062 C 555.75 477.519531 555.71875 477.640625 555.6875 477.746094 C 555.542969 478.3125 555.363281 478.855469 555.195312 479.378906 M 556.949219 472.972656 C 557.175781 472.128906 557.390625 471.292969 557.558594 470.527344 C 557.621094 470.179688 557.695312 469.847656 557.757812 469.515625 C 557.699219 469.847656 557.621094 470.175781 557.5625 470.523438 C 557.394531 471.289062 557.175781 472.128906 556.949219 472.972656 " fill-opacity="1" fill-rule="nonzero"/><path fill="#ffb477" d="M 556.335938 482.351562 C 555.78125 482.351562 555.199219 482.3125 554.601562 482.230469 C 554.601562 482.230469 554.601562 482.226562 554.601562 482.226562 L 554.601562 482.210938 C 554.589844 481.847656 554.632812 481.472656 554.707031 481.089844 C 554.816406 480.542969 555.003906 479.972656 555.195312 479.378906 C 555.363281 478.855469 555.542969 478.3125 555.6875 477.746094 C 555.71875 477.640625 555.75 477.519531 555.78125 477.414062 C 555.890625 476.90625 556.03125 476.339844 556.191406 475.742188 C 556.421875 474.859375 556.691406 473.910156 556.949219 472.972656 C 557.175781 472.128906 557.394531 471.289062 557.5625 470.523438 C 557.621094 470.175781 557.699219 469.847656 557.757812 469.515625 C 558.355469 469.308594 558.976562 469.191406 559.582031 469.191406 C 560.519531 469.191406 561.421875 469.476562 562.136719 470.164062 C 563.828125 471.808594 564.085938 474.976562 563.570312 477.117188 C 562.71875 480.605469 560.039062 482.351562 556.335938 482.351562 " fill-opacity="1" fill-rule="nonzero"/><path fill="#feb87a" d="M 531.53125 536.902344 C 527.132812 534.054688 526.605469 528.972656 529.929688 523.855469 C 531.929688 520.773438 533.710938 517.226562 536.644531 514.917969 C 540.140625 512.160156 544.339844 511.648438 547.976562 513.765625 C 556.523438 518.746094 548.671875 528.519531 544.753906 534.558594 C 541.695312 539.273438 535.578125 539.523438 531.53125 536.902344 " fill-opacity="1" fill-rule="nonzero"/><path fill="#fead6c" d="M 542.003906 527.777344 C 541.179688 527.777344 540.253906 527.613281 539.191406 527.246094 C 534.984375 525.777344 534.191406 522.03125 536.125 519.203125 C 536.996094 517.933594 538.28125 515.832031 539.621094 515.265625 C 539.757812 515.210938 539.902344 515.183594 540.054688 515.183594 C 541.414062 515.183594 543.578125 517.292969 548.597656 519.191406 C 550.089844 519.757812 549.46875 521.195312 548.320312 522.976562 C 546.742188 525.40625 545.132812 527.777344 542.003906 527.777344 " fill-opacity="1" fill-rule="nonzero"/><path fill="#feb87a" d="M 550.179688 544.792969 C 546.027344 542.058594 543.742188 536.957031 546.410156 532.371094 C 547.789062 530.003906 549.167969 527.640625 550.546875 525.269531 C 551.308594 523.964844 552.363281 522.316406 553.316406 521.171875 C 556.875 516.898438 560.6875 516.523438 564.390625 518.777344 C 568.847656 521.480469 570.277344 527.136719 567.226562 532.367188 C 566.445312 533.707031 565.664062 535.050781 564.882812 536.394531 C 563.738281 538.355469 562.597656 540.316406 561.453125 542.277344 C 558.785156 546.859375 554.335938 547.527344 550.179688 544.792969 " fill-opacity="1" fill-rule="nonzero"/><path fill="#fead6c" d="M 559.644531 533.421875 C 558.667969 533.421875 557.578125 533.152344 556.363281 532.511719 C 552.550781 530.5 553.066406 527.621094 554.425781 524.699219 C 555.082031 523.289062 556.347656 520.746094 557.6875 520.34375 C 557.78125 520.320312 557.878906 520.304688 557.984375 520.304688 C 559.351562 520.304688 561.558594 522.6875 566.0625 525.324219 C 567.308594 526.050781 566.316406 527.222656 565.335938 529.117188 C 564.214844 531.28125 562.378906 533.421875 559.644531 533.421875 " fill-opacity="1" fill-rule="nonzero"/><path fill="#feb87a" d="M 580.171875 546.605469 C 580.050781 546.710938 579.917969 546.832031 579.777344 546.9375 C 579.734375 546.96875 579.671875 547.015625 579.582031 547.089844 C 579.507812 547.148438 579.402344 547.226562 579.28125 547.300781 C 577.589844 548.492188 572.558594 551.828125 572.304688 551.902344 C 572.183594 551.949219 572.078125 551.964844 571.957031 552.007812 C 569.824219 552.625 567.558594 552.609375 565.292969 551.507812 C 561.277344 549.550781 559.691406 545.160156 561.746094 541.734375 L 564.75 536.699219 L 566.125 534.421875 C 567.425781 532.246094 569.613281 530.074219 572.289062 529.953125 C 574.417969 529.863281 576.441406 530.558594 577.964844 532.066406 C 578.691406 532.773438 579.328125 533.648438 579.765625 534.554688 C 580.671875 536.441406 579.882812 538.765625 579.039062 540.484375 C 578.480469 541.644531 577.90625 543.019531 577.121094 544.269531 L 577.089844 544.253906 C 577.046875 544.34375 576.984375 544.449219 576.9375 544.539062 L 580.171875 546.605469 " fill-opacity="1" fill-rule="nonzero"/><path fill="#fead6c" d="M 572.996094 541.503906 C 572.472656 541.503906 571.882812 541.410156 571.214844 541.199219 C 568.152344 540.234375 567.484375 537.722656 568.804688 535.8125 C 569.398438 534.953125 570.355469 533.253906 571.082031 533.125 C 571.136719 533.117188 571.195312 533.109375 571.261719 533.109375 C 572.398438 533.109375 574.988281 534.601562 577.125 535.429688 C 578.199219 535.84375 577.765625 536.714844 577.15625 538 C 576.402344 539.578125 575.382812 541.503906 572.996094 541.503906 " fill-opacity="1" fill-rule="nonzero"/><path fill="#feaa69" d="M 572.304688 551.902344 C 574.023438 550.0625 575.050781 548.207031 576.9375 544.539062 L 580.171875 546.605469 C 580.171875 546.609375 580.171875 546.609375 580.167969 546.613281 C 580.050781 546.714844 579.914062 546.832031 579.777344 546.9375 C 579.734375 546.96875 579.671875 547.015625 579.582031 547.089844 C 579.507812 547.148438 579.402344 547.226562 579.28125 547.300781 C 577.589844 548.492188 572.558594 551.828125 572.304688 551.902344 " fill-opacity="1" fill-rule="nonzero"/><path fill="#f29d66" d="M 507.507812 501.609375 C 505.535156 500.957031 503.996094 500.691406 502.863281 500.628906 C 507.050781 491.175781 512.800781 473.617188 518.371094 448.007812 C 518.59375 448.148438 518.828125 448.28125 519.0625 448.40625 C 515.769531 470.402344 510.484375 490.945312 507.507812 501.609375 " fill-opacity="1" fill-rule="nonzero"/><path fill="#ffb477" d="M 660.070312 498.949219 C 654.816406 475.371094 646.78125 456.339844 643.125 449.914062 C 643.511719 449.734375 643.867188 449.570312 644.191406 449.425781 C 649.238281 458.664062 661.015625 483.746094 665.445312 498.226562 C 663.933594 498.378906 662.175781 498.582031 661.371094 498.710938 C 660.941406 498.785156 660.507812 498.867188 660.070312 498.949219 " fill-opacity="1" fill-rule="nonzero"/><g clip-path="url(#d38b55c68e)"><path fill="#d4eeff" d="M 742.261719 409.808594 L 642.390625 445.550781 C 641.898438 445.757812 641.886719 445.871094 641.886719 445.871094 C 643.125 445.433594 667.574219 495.839844 667.164062 506.828125 L 742.261719 484.863281 L 742.261719 409.808594 " fill-opacity="1" fill-rule="nonzero"/></g><g clip-path="url(#ee74bc477e)"><path fill="#1f2f57" d="M 742.261719 405.109375 L 742.261719 491.957031 L 733.484375 495.492188 L 697.226562 510.105469 L 680.695312 516.761719 C 681.632812 513.828125 676.300781 499.785156 669.683594 484.695312 C 662.15625 467.53125 652.96875 449.019531 649.464844 443.960938 C 647.753906 441.496094 646.605469 440.160156 646.300781 440.222656 L 646.289062 440.222656 L 646.300781 440.214844 L 646.335938 440.203125 C 646.734375 440.0625 659.183594 436.667969 690.742188 423.960938 C 701.128906 419.777344 712.003906 416.179688 720.941406 412.90625 C 733.34375 408.375 742.261719 405.109375 742.261719 405.109375 " fill-opacity="1" fill-rule="nonzero"/></g><g clip-path="url(#3588b73420)"><path fill="#1a274c" d="M 680.695312 516.761719 C 680.765625 516.535156 680.800781 516.246094 680.800781 515.890625 C 680.800781 513.757812 679.53125 509.394531 677.488281 503.808594 C 675.476562 498.300781 672.714844 491.609375 669.683594 484.695312 C 676.71875 482.296875 688.097656 478.175781 704.882812 471.414062 C 715.269531 467.230469 726.140625 463.632812 735.074219 460.363281 C 737.632812 459.425781 740.046875 458.542969 742.261719 457.734375 L 742.261719 491.957031 L 733.484375 495.492188 L 697.226562 510.105469 L 680.695312 516.761719 " fill-opacity="1" fill-rule="nonzero"/></g><path fill="#f29d66" d="M 566.722656 533.511719 L 566.707031 533.464844 L 566.671875 533.316406 C 566.859375 533 567.042969 532.683594 567.226562 532.367188 C 568.328125 530.476562 568.84375 528.53125 568.847656 526.691406 C 568.847656 523.433594 567.238281 520.503906 564.390625 518.777344 C 563.960938 518.511719 563.53125 518.285156 563.09375 518.097656 C 562.070312 517.652344 561.039062 517.414062 560.011719 517.414062 C 557.757812 517.414062 555.515625 518.554688 553.367188 521.109375 C 553.746094 520.5625 554.132812 520.027344 554.503906 519.582031 C 556.671875 516.980469 558.929688 515.824219 561.199219 515.824219 C 562.660156 515.824219 564.128906 516.304688 565.578125 517.183594 C 570.035156 519.890625 571.464844 525.546875 568.414062 530.777344 C 567.988281 531.507812 567.5625 532.238281 567.136719 532.972656 C 566.992188 533.148438 566.855469 533.328125 566.722656 533.511719 " fill-opacity="1" fill-rule="nonzero"/><path fill="#fba969" d="M 568.847656 526.691406 C 568.847656 523.433594 567.238281 520.503906 564.390625 518.777344 C 567.238281 520.503906 568.847656 523.433594 568.847656 526.691406 M 553.355469 521.128906 C 553.359375 521.121094 553.363281 521.117188 553.367188 521.109375 C 555.515625 518.554688 557.757812 517.414062 560.011719 517.414062 C 561.039062 517.414062 562.070312 517.652344 563.09375 518.097656 C 562.074219 517.652344 561.042969 517.417969 560.015625 517.417969 C 557.757812 517.417969 555.511719 518.558594 553.355469 521.128906 " fill-opacity="1" fill-rule="nonzero"/><path fill="#fba969" d="M 566.734375 533.550781 L 566.722656 533.511719 C 566.855469 533.328125 566.992188 533.148438 567.136719 532.972656 C 567.128906 532.988281 567.121094 533 567.113281 533.015625 C 566.972656 533.191406 566.855469 533.371094 566.734375 533.550781 " fill-opacity="1" fill-rule="nonzero"/><path fill="#fdeadd" d="M 534.300781 517.253906 C 534.328125 517.222656 534.351562 517.183594 534.375 517.152344 L 534.382812 517.15625 C 534.355469 517.191406 534.328125 517.222656 534.300781 517.253906 " fill-opacity="1" fill-rule="nonzero"/><path fill="#f29d66" d="M 549.75 526.640625 C 550.992188 524.277344 551.875 521.863281 551.808594 519.648438 C 551.808594 519.632812 551.808594 519.621094 551.808594 519.605469 C 551.808594 519.601562 551.808594 519.601562 551.808594 519.59375 C 551.808594 519.589844 551.808594 519.585938 551.808594 519.582031 C 551.808594 519.582031 551.808594 519.582031 551.808594 519.578125 C 551.808594 519.578125 551.808594 519.574219 551.808594 519.566406 C 551.808594 519.566406 551.804688 519.566406 551.804688 519.5625 C 551.804688 519.5625 551.804688 519.558594 551.804688 519.558594 C 551.804688 519.554688 551.804688 519.550781 551.804688 519.550781 C 551.804688 519.550781 551.804688 519.546875 551.804688 519.546875 C 551.804688 519.542969 551.804688 519.542969 551.804688 519.539062 C 551.804688 519.535156 551.804688 519.535156 551.804688 519.53125 C 551.804688 519.527344 551.804688 519.515625 551.800781 519.507812 C 551.800781 519.507812 551.800781 519.507812 551.800781 519.503906 C 551.800781 519.503906 551.800781 519.5 551.800781 519.5 C 551.800781 519.496094 551.800781 519.496094 551.800781 519.496094 C 551.800781 519.492188 551.800781 519.488281 551.800781 519.484375 C 551.6875 517.300781 550.621094 515.320312 548.015625 513.789062 C 548.015625 513.789062 548.011719 513.789062 548.011719 513.789062 C 548.007812 513.785156 548.007812 513.78125 548.003906 513.78125 C 548 513.78125 548 513.777344 547.996094 513.777344 C 547.996094 513.777344 547.992188 513.777344 547.992188 513.773438 C 547.984375 513.773438 547.980469 513.769531 547.976562 513.765625 C 546.464844 512.886719 544.859375 512.460938 543.246094 512.460938 C 540.972656 512.460938 538.691406 513.304688 536.644531 514.917969 C 535.808594 515.578125 535.066406 516.335938 534.382812 517.15625 L 534.375 517.152344 C 535.371094 515.726562 536.476562 514.394531 537.832031 513.328125 C 539.878906 511.714844 542.160156 510.871094 544.433594 510.871094 C 546.046875 510.871094 547.65625 511.296875 549.164062 512.175781 C 553.835938 514.898438 553.609375 519.050781 551.800781 523.246094 C 551.347656 523.9375 550.910156 524.644531 550.546875 525.269531 C 550.28125 525.730469 550.015625 526.183594 549.75 526.640625 " fill-opacity="1" fill-rule="nonzero"/><path fill="#fba969" d="M 549.746094 526.644531 C 550.988281 524.277344 551.875 521.863281 551.808594 519.648438 C 551.875 521.863281 550.992188 524.277344 549.75 526.640625 C 549.75 526.640625 549.75 526.644531 549.746094 526.644531 M 551.808594 519.648438 C 551.808594 519.632812 551.808594 519.621094 551.808594 519.605469 C 551.808594 519.621094 551.808594 519.632812 551.808594 519.648438 M 551.808594 519.605469 C 551.808594 519.601562 551.808594 519.601562 551.808594 519.59375 C 551.808594 519.601562 551.808594 519.601562 551.808594 519.605469 M 551.808594 519.59375 C 551.808594 519.589844 551.808594 519.585938 551.808594 519.582031 C 551.808594 519.585938 551.808594 519.589844 551.808594 519.59375 M 551.808594 519.578125 C 551.808594 519.578125 551.808594 519.574219 551.808594 519.566406 C 551.808594 519.574219 551.808594 519.578125 551.808594 519.578125 M 551.804688 519.5625 C 551.804688 519.5625 551.804688 519.558594 551.804688 519.558594 C 551.804688 519.558594 551.804688 519.5625 551.804688 519.5625 M 551.804688 519.550781 C 551.804688 519.546875 551.804688 519.546875 551.804688 519.546875 C 551.804688 519.546875 551.804688 519.550781 551.804688 519.550781 M 551.804688 519.539062 C 551.804688 519.535156 551.804688 519.535156 551.804688 519.53125 C 551.804688 519.535156 551.804688 519.535156 551.804688 519.539062 M 551.800781 519.507812 C 551.800781 519.507812 551.800781 519.507812 551.800781 519.503906 C 551.800781 519.507812 551.800781 519.507812 551.800781 519.507812 M 551.800781 519.5 C 551.800781 519.496094 551.800781 519.496094 551.800781 519.496094 C 551.800781 519.496094 551.800781 519.496094 551.800781 519.5 M 534.21875 517.378906 C 534.242188 517.339844 534.273438 517.296875 534.300781 517.253906 C 534.328125 517.222656 534.355469 517.191406 534.382812 517.15625 C 535.066406 516.335938 535.808594 515.578125 536.644531 514.917969 C 538.691406 513.304688 540.972656 512.460938 543.246094 512.460938 C 544.859375 512.460938 546.464844 512.886719 547.976562 513.765625 C 547.980469 513.769531 547.984375 513.773438 547.992188 513.773438 C 547.984375 513.773438 547.980469 513.769531 547.976562 513.765625 C 546.464844 512.886719 544.859375 512.460938 543.246094 512.460938 C 540.972656 512.460938 538.691406 513.304688 536.644531 514.917969 C 535.734375 515.636719 534.945312 516.476562 534.21875 517.378906 M 548.015625 513.789062 C 548.015625 513.789062 548.011719 513.789062 548.011719 513.789062 C 548.011719 513.789062 548.015625 513.789062 548.015625 513.789062 M 548.003906 513.78125 C 548 513.78125 548 513.777344 547.996094 513.777344 C 548 513.777344 548 513.78125 548.003906 513.78125 " fill-opacity="1" fill-rule="nonzero"/><path fill="#fba969" d="M 550.546875 525.269531 C 550.910156 524.644531 551.347656 523.9375 551.800781 523.246094 C 551.800781 523.246094 551.800781 523.25 551.800781 523.253906 C 551.34375 523.941406 550.910156 524.644531 550.546875 525.269531 " fill-opacity="1" fill-rule="nonzero"/><path fill="#fdeadd" d="M 577.027344 544.597656 L 576.9375 544.539062 C 576.941406 544.539062 576.941406 544.539062 576.941406 544.535156 L 577.03125 544.59375 C 577.03125 544.59375 577.027344 544.59375 577.027344 544.597656 " fill-opacity="1" fill-rule="nonzero"/><path fill="#f29d66" d="M 577.03125 544.59375 L 576.941406 544.535156 C 576.988281 544.445312 577.046875 544.34375 577.089844 544.253906 L 577.121094 544.269531 C 577.90625 543.019531 578.480469 541.644531 579.039062 540.484375 C 579.617188 539.308594 580.167969 537.851562 580.167969 536.441406 C 580.167969 535.792969 580.050781 535.152344 579.765625 534.554688 C 579.328125 533.648438 578.691406 532.773438 577.964844 532.066406 C 576.53125 530.644531 574.648438 529.945312 572.65625 529.945312 C 572.535156 529.945312 572.410156 529.949219 572.289062 529.953125 C 572.285156 529.953125 572.28125 529.953125 572.273438 529.953125 C 572.273438 529.953125 572.269531 529.957031 572.265625 529.957031 C 570.386719 530.046875 568.746094 531.15625 567.488281 532.558594 C 568.804688 530.480469 570.914062 528.480469 573.476562 528.363281 C 573.597656 528.359375 573.722656 528.355469 573.84375 528.355469 C 575.835938 528.355469 577.71875 529.054688 579.15625 530.476562 C 579.878906 531.1875 580.515625 532.058594 580.953125 532.964844 C 581.859375 534.851562 581.074219 537.175781 580.226562 538.894531 C 579.695312 540 579.136719 541.292969 578.410156 542.496094 C 578.121094 542.796875 577.84375 543.105469 577.644531 543.46875 C 577.578125 543.589844 577.558594 543.714844 577.558594 543.839844 C 577.386719 544.089844 577.207031 544.339844 577.03125 544.59375 " fill-opacity="1" fill-rule="nonzero"/><path fill="#fba969" d="M 580.167969 536.441406 C 580.167969 535.792969 580.050781 535.152344 579.765625 534.554688 C 579.328125 533.648438 578.691406 532.773438 577.964844 532.066406 C 576.53125 530.644531 574.648438 529.945312 572.65625 529.945312 C 572.535156 529.945312 572.410156 529.949219 572.289062 529.953125 C 572.410156 529.949219 572.535156 529.945312 572.65625 529.945312 C 574.648438 529.945312 576.53125 530.644531 577.964844 532.066406 C 578.691406 532.773438 579.328125 533.648438 579.765625 534.554688 C 580.050781 535.152344 580.167969 535.792969 580.167969 536.441406 M 567.457031 532.609375 C 567.46875 532.589844 567.476562 532.574219 567.488281 532.558594 C 568.746094 531.15625 570.386719 530.046875 572.265625 529.957031 C 570.367188 530.050781 568.722656 531.183594 567.457031 532.609375 M 572.265625 529.957031 C 572.269531 529.957031 572.273438 529.953125 572.273438 529.953125 C 572.273438 529.953125 572.269531 529.957031 572.265625 529.957031 " fill-opacity="1" fill-rule="nonzero"/><g clip-path="url(#114acb4695)"><path fill="#e8f2f2" d="M 518.742188 446.277344 C 510.671875 483.964844 502.140625 504.699219 498.484375 508.3125 C 498.410156 508.386719 498.300781 508.410156 498.207031 508.375 L 491.648438 506.210938 L 491.320312 506.09375 L 491.164062 506.035156 L 467.9375 497.792969 L 467.859375 497.765625 L 442.328125 488.699219 L 441.988281 488.578125 L 425.886719 482.867188 L 425.707031 482.800781 L 418.320312 480.476562 L 418.320312 406.808594 L 444.421875 416.335938 L 444.507812 416.367188 L 456.203125 420.84375 L 456.246094 420.859375 L 488.3125 433.125 L 488.332031 433.132812 L 497.65625 436.699219 L 497.660156 436.699219 L 512.070312 442.207031 L 513.824219 442.878906 L 517.71875 444.363281 C 518.488281 444.664062 518.917969 445.476562 518.742188 446.277344 " fill-opacity="1" fill-rule="nonzero"/></g><g clip-path="url(#25d532756b)"><path fill="#262525" d="M 514.421875 440.554688 C 514.363281 440.863281 514.183594 441.667969 513.824219 442.878906 C 508.546875 460.566406 504.058594 474.183594 500.324219 484.589844 C 499.988281 485.527344 499.652344 486.445312 499.328125 487.328125 C 492.015625 507.304688 487.78125 514.367188 486.234375 515.78125 C 486.011719 515.984375 485.695312 516.042969 485.414062 515.9375 C 483.507812 515.21875 473.734375 511.523438 463.226562 507.257812 C 454.425781 503.675781 444.484375 499.558594 436.199219 496.101562 C 430.4375 493.703125 425.480469 491.625 422.253906 490.269531 C 419.773438 489.226562 418.320312 488.613281 418.320312 488.613281 L 418.320312 401.765625 L 447.273438 413.078125 L 448.574219 413.609375 L 448.929688 413.753906 L 456.222656 416.730469 L 456.578125 416.875 L 457.617188 417.296875 L 457.757812 417.359375 L 457.875 417.40625 L 457.878906 417.40625 L 490.394531 430.652344 L 499.167969 433.597656 L 513.367188 438.367188 C 514.199219 438.730469 514.59375 439.648438 514.421875 440.554688 " fill-opacity="1" fill-rule="nonzero"/></g><g clip-path="url(#92d568476c)"><path fill="#1c1b1b" d="M 485.699219 515.988281 C 485.601562 515.988281 485.507812 515.972656 485.414062 515.9375 C 483.507812 515.21875 473.734375 511.523438 463.226562 507.257812 C 454.425781 503.675781 444.484375 499.558594 436.199219 496.101562 C 430.4375 493.703125 425.480469 491.625 422.253906 490.269531 C 419.773438 489.226562 418.320312 488.613281 418.320312 488.613281 L 418.320312 452.804688 L 500.324219 484.589844 C 499.988281 485.527344 499.652344 486.445312 499.328125 487.328125 C 496.25 495.734375 493.71875 501.855469 491.703125 506.230469 C 488.925781 512.25 487.128906 514.964844 486.234375 515.78125 C 486.085938 515.917969 485.894531 515.988281 485.699219 515.988281 " fill-opacity="1" fill-rule="nonzero"/></g><path fill="#414042" d="M 482.015625 503.230469 C 482.015625 505.398438 480.253906 507.15625 478.082031 507.15625 C 475.910156 507.15625 474.152344 505.398438 474.152344 503.230469 C 474.152344 501.0625 475.910156 499.304688 478.082031 499.304688 C 480.253906 499.304688 482.015625 501.0625 482.015625 503.230469 " fill-opacity="1" fill-rule="nonzero"/><path fill="#262525" d="M 478.570312 503.097656 L 479.105469 502.164062 C 479.203125 501.992188 479.144531 501.773438 478.972656 501.675781 C 478.800781 501.578125 478.582031 501.636719 478.484375 501.808594 L 477.949219 502.742188 L 477.011719 502.210938 C 476.84375 502.109375 476.625 502.171875 476.523438 502.34375 C 476.429688 502.515625 476.488281 502.730469 476.660156 502.828125 L 477.59375 503.363281 L 477.058594 504.296875 C 476.960938 504.46875 477.023438 504.6875 477.191406 504.785156 C 477.277344 504.835938 477.378906 504.84375 477.464844 504.820312 C 477.554688 504.792969 477.632812 504.738281 477.679688 504.652344 L 478.214844 503.714844 L 479.152344 504.25 C 479.238281 504.300781 479.332031 504.308594 479.425781 504.289062 C 479.511719 504.261719 479.589844 504.203125 479.640625 504.117188 C 479.738281 503.949219 479.679688 503.726562 479.507812 503.632812 L 478.570312 503.097656 " fill-opacity="1" fill-rule="nonzero"/><path fill="#2a4075" d="M 695.410156 502.746094 C 695.410156 504.910156 693.652344 506.671875 691.480469 506.671875 C 689.308594 506.671875 687.546875 504.910156 687.546875 502.746094 C 687.546875 500.574219 689.308594 498.816406 691.480469 498.816406 C 693.652344 498.816406 695.410156 500.574219 695.410156 502.746094 " fill-opacity="1" fill-rule="nonzero"/><path fill="#1f2f57" d="M 691.96875 502.613281 L 692.503906 501.675781 C 692.601562 501.503906 692.539062 501.285156 692.367188 501.1875 C 692.195312 501.089844 691.976562 501.148438 691.882812 501.320312 L 691.347656 502.253906 L 690.410156 501.722656 C 690.238281 501.625 690.019531 501.683594 689.921875 501.855469 C 689.824219 502.027344 689.882812 502.246094 690.054688 502.34375 L 690.992188 502.875 L 690.457031 503.8125 C 690.359375 503.980469 690.417969 504.203125 690.589844 504.296875 C 690.675781 504.347656 690.773438 504.355469 690.863281 504.335938 C 690.949219 504.308594 691.03125 504.25 691.078125 504.164062 L 691.613281 503.230469 L 692.550781 503.765625 C 692.636719 503.8125 692.730469 503.824219 692.820312 503.800781 C 692.910156 503.773438 692.988281 503.714844 693.039062 503.632812 C 693.132812 503.460938 693.074219 503.242188 692.902344 503.144531 L 691.96875 502.613281 " fill-opacity="1" fill-rule="nonzero"/><path fill="#19bacc" d="M 581.457031 429.105469 L 583.039062 409.371094 L 579.960938 410.445312 Z M 581.457031 429.105469 " fill-opacity="1" fill-rule="nonzero"/><path fill="#19bacc" d="M 546.449219 437.328125 L 535.15625 421.066406 L 538.351562 420.445312 Z M 546.449219 437.328125 " fill-opacity="1" fill-rule="nonzero"/><path fill="#19bacc" d="M 615.761719 439.1875 L 626.308594 424.003906 L 624.335938 421.308594 Z M 615.761719 439.1875 " fill-opacity="1" fill-rule="nonzero"/><g clip-path="url(#befa8c9b7e)"><path fill="#19bacc" d="M 577.8125 567.292969 L 579.390625 587.023438 L 576.3125 585.953125 Z M 577.8125 567.292969 " fill-opacity="1" fill-rule="nonzero"/></g><path fill="#19bacc" d="M 543.199219 557.207031 L 531.902344 573.476562 L 535.101562 574.09375 Z M 543.199219 557.207031 " fill-opacity="1" fill-rule="nonzero"/><path fill="#19bacc" d="M 612.535156 559.066406 L 623.082031 574.253906 L 621.109375 576.945312 Z M 612.535156 559.066406 " fill-opacity="1" fill-rule="nonzero"/></svg>